<svg width="1150" height="1501" viewBox="0 0 1150 1501" fill="none" xmlns="http://www.w3.org/2000/svg">
<path d="M678.263 0H0.800781V11.6835C0.800781 187.809 67.0687 348.715 175.985 470.807C67.0458 592.922 0.800781 753.828 0.800781 929.953V1500.98H554.472V941.637H678.263C937.872 941.637 1149.09 730.415 1149.09 470.807C1149.09 211.199 937.872 0 678.263 0ZM24.2826 23.367H678.263C840.387 23.367 982.632 110.018 1061.13 239.478H691.278C495.068 239.478 317.726 321.722 191.915 453.569C89.9997 338.524 27.1289 188.13 24.2826 23.39V23.367ZM531.105 1477.61H24.1678V941.637H531.105V1477.61ZM678.263 918.27H24.2826C27.1289 753.507 89.9997 603.113 191.915 488.068C317.749 619.915 495.091 702.159 691.278 702.159H1061.16C982.655 831.596 840.387 918.27 678.263 918.27ZM691.278 678.769C501.15 678.769 329.363 598.844 207.73 470.807C329.363 342.77 501.15 262.845 691.278 262.845H1074.38C1107.16 325.004 1125.73 395.794 1125.73 470.83C1125.73 545.866 1107.16 616.61 1074.4 678.792H691.301L691.278 678.769ZM1113.81 1500.98H862.606C724.079 1500.98 611.398 1388.27 611.398 1249.77V998.562H862.606C1001.13 998.562 1113.81 1111.27 1113.81 1249.77V1500.98ZM634.765 1021.93V1249.77C634.765 1375.4 736.979 1477.61 862.606 1477.61H1090.45V1249.77C1090.45 1124.14 988.233 1021.93 862.606 1021.93H634.765Z" fill="url(#paint0_linear_106_363)"/>
<defs>
<linearGradient id="paint0_linear_106_363" x1="-470.535" y1="45.6553" x2="1044.9" y2="1544.2" gradientUnits="userSpaceOnUse">
<stop stop-color="#6F462F"/>
<stop offset="0.27" stop-color="#CC794E"/>
<stop offset="0.53" stop-color="#71472E"/>
<stop offset="0.77" stop-color="#CC7F59"/>
<stop offset="1" stop-color="#6F472E"/>
</linearGradient>
</defs>
</svg>
