<?xml version="1.0" encoding="utf-8"?>
<!-- Generator: Adobe Illustrator 26.4.1, SVG Export Plug-In . SVG Version: 6.00 Build 0)  -->
<svg version="1.1" id="Layer_1" xmlns="http://www.w3.org/2000/svg" xmlns:xlink="http://www.w3.org/1999/xlink" x="0px" y="0px"
	 viewBox="0 0 1150 1501" style="enable-background:new 0 0 1150 1501;" xml:space="preserve">
<path d="M24.3,23.4h654c162.1,0,304.4,86.7,382.9,216.1H691.3c-196.2,0-373.6,82.2-499.4,214.1C90,338.5,27.1,188.1,24.3,23.4
	L24.3,23.4z"/>
<rect x="24.2" y="941.6" width="506.9" height="536"/>
<path d="M678.3,918.3h-654C27.1,753.5,90,603.1,191.9,488.1c125.8,131.8,303.2,214.1,499.4,214.1h369.9
	C982.7,831.6,840.4,918.3,678.3,918.3z"/>
<path d="M691.3,678.8c-190.1,0-361.9-79.9-483.5-208c121.6-128,293.4-208,483.5-208h383.1c32.8,62.2,51.3,132.9,51.3,208
	s-18.6,145.8-51.3,208L691.3,678.8L691.3,678.8z"/>
<path d="M634.8,1021.9v227.8c0,125.6,102.2,227.8,227.8,227.8h227.8v-227.8c0-125.6-102.2-227.8-227.8-227.8H634.8z"/>
</svg>
