<svg width="1707" height="1654" viewBox="0 0 1707 1654" fill="none" xmlns="http://www.w3.org/2000/svg">
<g clip-path="url(#clip0_218_384)">
<path d="M4.47756 1362.69H245.238V1388.85H4.47756V1362.69ZM4.47756 1249.28L198.593 1094.88H4.47756V1068.76H245.238V1090.89L51.4003 1245.26H245.238V1271.41H4.47756V1249.28V1249.28ZM124.858 486.978C56.004 486.978 0.00029755 543.104 0.00029755 612.131C0.00029755 681.157 56.004 737.562 124.858 737.562C193.711 737.562 249.715 681.284 249.715 612.131C249.715 542.978 193.711 486.978 124.858 486.978V486.978ZM223.56 612.131C223.56 666.714 179.268 711.13 124.858 711.13C70.4476 711.13 26.1556 666.714 26.1556 612.131C26.1556 557.547 70.4223 513.435 124.858 513.435C179.293 513.435 223.56 557.699 223.56 612.131ZM249.69 329.905C249.69 385.525 223.206 424.376 185.263 424.376H178.585V398.526H184.074C208.383 398.526 224.723 370.956 224.723 329.905C224.723 291.61 209.824 267.809 185.845 267.809C157.868 267.809 147.725 301.323 136.974 336.81C125.237 375.028 110.642 422.606 64.9838 422.606C25.4726 422.606 -0.050293 388.56 -0.050293 335.874C-0.050293 283.187 27.0409 244.665 64.3767 244.665H71.3582V270.515H65.5656C41.2569 270.515 24.8908 296.77 24.8908 335.874C24.8908 372.701 39.7897 395.592 63.7696 395.592C90.8609 395.592 100.549 364.86 111.755 329.298L112.109 328.134C123.972 289.081 138.745 240.517 184.934 240.517C224.243 240.517 249.639 275.625 249.639 329.93L249.69 329.905ZM245.238 167.494H4.47756V0H30.3293V141.315H114.31V7.58808H139.554V141.315H219.386V0H245.238V167.469V167.494ZM220.676 1468.32C220.676 1506.59 197.708 1542.18 163.079 1558.21V1547.34C163.079 1498.98 129.613 1463.87 83.4747 1463.87C45.4306 1463.87 4.47756 1490 4.47756 1547.34V1654.03H245.238V1627.87H163.079V1586.59C213.239 1569.06 246.806 1521.79 246.806 1468.32V1464.02H220.676V1468.32V1468.32ZM29.7222 1627.87V1547.92C29.7222 1507.93 57.7494 1489.72 83.7782 1489.72C120.912 1489.72 137.834 1519.89 137.834 1547.92V1627.87H29.7222V1627.87ZM220.676 795.99C220.676 834.259 197.708 869.847 163.079 885.884V875.007C163.079 826.646 129.613 791.538 83.4747 791.538C45.4306 791.538 4.47756 817.667 4.47756 875.007V981.696H245.238V955.542H163.079V914.263C213.239 896.735 246.806 849.461 246.806 795.99V791.69H220.676V795.99V795.99ZM29.7222 955.542V875.589C29.7222 835.6 57.7494 817.388 83.7782 817.388C120.912 817.388 137.834 847.564 137.834 875.589V955.542H29.7222ZM1178.33 0H431.765V12.8745C431.765 206.952 504.793 384.261 624.819 518.797C504.767 653.359 431.765 830.668 431.765 1024.75V1653.97H1041.91V1037.62H1178.33C1464.42 1037.62 1697.19 804.868 1697.19 518.797C1697.19 232.727 1464.42 0 1178.33 0ZM457.642 25.7489H1178.33C1356.99 25.7489 1513.74 121.232 1600.25 263.888H1192.67C976.448 263.888 781.017 354.515 642.373 499.802C530.062 373.03 460.779 207.306 457.642 25.7742V25.7489ZM1016.16 1628.23H457.516V1037.62H1016.16V1628.23ZM1178.33 1011.87H457.642C460.779 830.313 530.062 664.59 642.373 537.818C781.042 683.105 976.473 773.732 1192.67 773.732H1600.28C1513.77 916.362 1356.99 1011.87 1178.33 1011.87V1011.87ZM1192.67 747.957C983.151 747.957 793.841 659.885 659.802 518.797C793.841 377.71 983.151 289.637 1192.67 289.637H1614.85C1650.97 358.132 1671.44 436.138 1671.44 518.823C1671.44 601.507 1650.97 679.462 1614.87 747.983H1192.7L1192.67 747.957ZM1658.31 1653.97H1381.48C1228.82 1653.97 1104.64 1529.78 1104.64 1377.16V1100.35H1381.48C1534.13 1100.35 1658.31 1224.54 1658.31 1377.16V1653.97V1653.97ZM1130.39 1126.1V1377.16C1130.39 1515.59 1243.03 1628.23 1381.48 1628.23H1632.56V1377.16C1632.56 1238.73 1519.92 1126.1 1381.48 1126.1H1130.39V1126.1Z" fill="url(#paint0_linear_218_384)"/>
</g>
<defs>
<linearGradient id="paint0_linear_218_384" x1="-87.6478" y1="50.309" x2="1582.26" y2="1701.71" gradientUnits="userSpaceOnUse">
<stop stop-color="#6F462F"/>
<stop offset="0.27" stop-color="#CC794E"/>
<stop offset="0.53" stop-color="#71472E"/>
<stop offset="0.77" stop-color="#CC7F59"/>
<stop offset="1" stop-color="#6F472E"/>
</linearGradient>
<clipPath id="clip0_218_384">
<rect width="1707" height="1654" fill="white"/>
</clipPath>
</defs>
</svg>
