<?xml version="1.0" encoding="UTF-8" standalone="no"?>
<svg
   xmlns:dc="http://purl.org/dc/elements/1.1/"
   xmlns:cc="http://creativecommons.org/ns#"
   xmlns:rdf="http://www.w3.org/1999/02/22-rdf-syntax-ns#"
   xmlns:svg="http://www.w3.org/2000/svg"
   xmlns="http://www.w3.org/2000/svg"
   version="1.1"
   id="Layer_1"
   x="0px"
   y="0px"
   viewBox="0 0 218 932"
   xml:space="preserve"
   width="218"
   height="932"><metadata
   id="metadata22"><rdf:RDF><cc:Work
       rdf:about=""><dc:format>image/svg+xml</dc:format><dc:type
         rdf:resource="http://purl.org/dc/dcmitype/StillImage" /><dc:title></dc:title></cc:Work></rdf:RDF></metadata><defs
   id="defs20"><linearGradient
     id="SVGID_1_-7"
     gradientUnits="userSpaceOnUse"
     x1="36.916801"
     y1="960.12408"
     x2="960.1322"
     y2="36.908699"
     gradientTransform="matrix(1,0,0,-1,218,1080)"><stop
       offset="0"
       style="stop-color:#5C3721"
       id="stop7" /><stop
       offset="0.2657"
       style="stop-color:#C5744A"
       id="stop9" /><stop
       offset="0.5284"
       style="stop-color:#5C3721"
       id="stop11" /><stop
       offset="0.7743"
       style="stop-color:#C57B57"
       id="stop13" /><stop
       offset="0.9996"
       style="stop-color:#5B3720"
       id="stop15" /></linearGradient></defs>
<style
   type="text/css"
   id="style2">
	.st0{fill:url(#SVGID_1_);}
</style>
<linearGradient
   id="SVGID_1_"
   gradientUnits="userSpaceOnUse"
   x1="36.926899"
   y1="119.6068"
   x2="960.14221"
   y2="1042.8221"
   gradientTransform="translate(-74.3,-74)">
	<stop
   offset="0"
   style="stop-color:#885439"
   id="stop4" />
	<stop
   offset="0.2657"
   style="stop-color:#B87351"
   id="stop6" />
	<stop
   offset="0.5284"
   style="stop-color:#885439"
   id="stop8" />
	<stop
   offset="0.7743"
   style="stop-color:#B87351"
   id="stop10" />
	<stop
   offset="1"
   style="stop-color:#7B4C32"
   id="stop12" />
</linearGradient>

<path
   id="rect847"
   style="display:none;fill:#142835;fill-opacity:1;fill-rule:evenodd;stroke-width:0;stroke-dashoffset:3"
   d="M 0.00497562,0.07268918 V 932.00824 H 929.7254 V 0.07268918 Z M 649.97764,0.86534645 l 21.31733,1.62837175 28.02942,4.9399155 27.92953,8.0596573 28.31733,11.425998 23.70877,12.019036 27.5241,17.892508 31.22584,25.576398 23.67939,25.858239 15.9782,23.95585 21.10775,35.98662 14.24484,39.04568 11.08373,43.72922 1.84103,39.99885 -2.53246,34.8906 -8.61389,41.55479 -13.55935,39.59371 -11.0445,23.73077 -15.66678,23.82668 -27.26949,34.54224 -35.34672,32.54784 -34.58286,23.42155 -43.15564,19.81055 -39.01124,11.35946 -47.75049,6.34909 -90.49285,0.0352 -1.04001,347.4068 -338.60738,-0.17216 0.49748,-347.675 0.77757,-49.70448 7.76385,-39.09853 16.70288,-45.2382 27.624,-47.80015 34.46143,-46.52995 42.02748,-41.51955 L 369.61491,291.2635 350.0662,276.78822 314.78215,241.48661 293.35123,216.56195 271.36798,186.3353 249.6276,148.64203 234.05092,109.64526 222.20143,70.114188 217.75739,34.56989 216.72913,16.702817 217.22857,1.2039285 Z m 82.78972,615.26419355 35.77957,4.57784 24.46674,8.18296 28.47597,14.99785 24.39623,19.53654 14.5073,16.78673 12.74848,18.93177 10.36488,23.5879 7.21544,24.33164 3.18272,25.41198 -0.0881,157.48626 -148.17146,0.61066 -36.09491,-6.05357 -31.06914,-11.93488 -22.70793,-14.35197 -19.90126,-18.39551 -13.99806,-15.00569 c 0,0 -10.70885,-16.74522 -11.34612,-17.64984 -0.63728,-0.9046 -9.65195,-20.58362 -9.65195,-20.58362 l -8.35731,-21.64443 -4.00924,-29.76867 -0.15081,-158.77994 z" /><path
   class="st0"
   d="M 882.5,131.8 881.3,130 C 870.7,114.1 858.3,99.1 844.5,85.2 789.5,30.2 716.3,0 638.5,0 H 218.7 v 16.7 c 0,60.2 19,119 56.5,174.8 24.4,36.4 55.9,70.5 94.1,101.8 -37.9,31.7 -69.9,66.3 -94.1,101.8 -37.5,55.2 -56.5,112.2 -56.5,169.6 V 932 H 562 V 585.1 h 76.6 c 77.6,0 150.8,-31 206,-87.1 23.9,-24.3 43.3,-52.1 57.6,-82.8 18.2,-38.6 27.8,-80.9 27.8,-124.2 0,-0.1 0,-0.2 0,-0.3 0,-0.1 0,-0.2 0,-0.3 -0.1,-56.9 -16.5,-111.3 -47.5,-158.6 z M 279.3,188.7 C 242.4,133.8 223.7,75.9 223.7,16.7 V 4.9 h 414.8 c 98.2,0 185,49.6 236.6,125.1 H 794.8 C 736,130 669.8,141.8 603.6,164.1 537.5,186.4 472.9,218.5 417,257 401.7,267.6 387,278.6 373.1,290 335,258.8 303.6,224.9 279.3,188.7 Z M 556.9,927 H 223.6 V 585.1 h 333.3 z m 284,-432.5 c -54.3,55.2 -126.2,85.6 -202.5,85.6 H 561.8 223.7 v -15.5 c 0,-56.3 18.7,-112.5 55.6,-166.8 24,-35.3 56,-69.8 93.9,-101.3 13.8,11.2 28.4,22 43.9,32.4 55.5,37.5 120,68.6 186.6,90 65.8,21.2 131.9,32.4 191.2,32.4 h 81.2 c -10.3,15.4 -22,29.8 -35.2,43.2 z m 61.4,-92.3 c -1.5,3.6 -3.1,7.2 -4.7,10.7 -5.4,11.5 -11.6,22.6 -18.6,33.4 H 794.8 C 736,446.3 670.4,435.2 605.1,414.2 539,392.9 474.9,362 419.7,324.8 c -15,-10.1 -29.3,-20.7 -42.7,-31.5 13.5,-11.1 27.8,-21.8 42.8,-32.1 113,-77.8 256.7,-126.1 375,-126.1 h 83.6 c 29.3,44.8 46.3,98.3 46.4,155.6 0,38.5 -7.6,76 -22.5,111.5 z M 731.4,614.1 H 588.9 v 149.1 c 0,44.5 16.9,86.6 47.5,118.3 31.4,32.5 73.9,50.4 119.8,50.4 h 142.5 v -149 c 0,-46.6 -17.6,-89.5 -49.6,-121 C 817.8,631.1 776,614.1 731.4,614.1 Z M 893.7,927 H 756.2 C 711.7,927 670.5,909.6 640,878.1 610.2,847.3 593.8,806.5 593.8,763.2 V 619.1 h 137.5 c 43.3,0 83.8,16.5 114.2,46.3 31,30.5 48.1,72.2 48.1,117.5 z M 4.6,774.5 h 126.7 v 5.1 H 4.6 Z m 0,-61.5 v -5.3 L 123.7,612.9 H 4.6 v -5.1 h 126.7 v 5.3 L 12.4,707.9 H 131.3 V 713 Z M 68,283.3 c -33.5,0 -60.8,27.3 -60.8,60.8 0,33.6 27.3,61 60.8,61 33.5,0 60.8,-27.4 60.8,-61 0,-33.5 -27.3,-60.8 -60.8,-60.8 m 0,127 C 31.7,410.3 2.1,380.6 2.1,344.1 2.1,307.7 31.7,278 68,278 c 36.3,0 65.9,29.6 65.9,66.1 0,36.5 -29.6,66.2 -65.9,66.2 m 35.3,-182.5 c 15.7,-1.2 26.1,-18.5 26.1,-43.7 0,-24.7 -10.3,-40.1 -26.9,-40.1 -19.5,0 -26,21.6 -32.4,42.6 -6.5,21.2 -13.9,45.2 -36.1,45.2 -19.4,0 -32,-17.4 -32,-44.3 0,-26.7 12.9,-46.2 30.7,-46.8 v 4.9 c -15.8,1 -26.3,17.6 -26.3,41.9 0,23.9 10.3,38.7 26.9,38.7 18.9,0 25.2,-19.9 31.8,-41 l 0.2,-0.7 c 6.6,-21.6 14,-46.2 36.6,-46.2 19.3,0 31.8,18 31.8,45.8 0,28.1 -12.5,47.9 -30.6,48.7 z M 4.6,87.2 V 1.6 H 9.5 V 82.1 H 66.8 V 13.6 h 4.6 v 68.5 h 55 V 1.6 h 4.9 v 85.6 z m 40.1,749.5 c -17.1,0 -35.5,11.8 -35.5,37.9 v 50.2 h 71 v -50.2 c 0,-18.3 -11.1,-37.9 -35.5,-37.9 M 4.6,929.8 v -55.6 c 0,-29.2 20.7,-42.5 39.9,-42.5 23.3,0 40.2,17.8 40.2,42.5 v 13.5 l 4.5,-1.8 c 21.9,-9 36.9,-30.5 37.9,-54 h 5.1 c -1,27.6 -18.9,51.7 -45.2,60.4 l -2.2,0.7 v 31.8 h 46.6 v 5.1 H 4.6 Z M 44.7,455.6 c -17.1,0 -35.5,11.8 -35.5,37.9 v 50.2 h 71 v -50.2 c 0,-18.3 -11.1,-37.9 -35.5,-37.9 M 4.6,548.8 v -55.6 c 0,-29.2 20.7,-42.5 39.9,-42.5 23.3,0 40.2,17.8 40.2,42.5 v 13.5 l 4.5,-1.8 c 21.9,-9 36.9,-30.5 37.9,-54 h 5.1 c -1,27.6 -18.9,51.7 -45.2,60.4 l -2.2,0.7 v 31.8 h 46.6 v 5.1 z"
   id="path15"
   style="display:none;fill:url(#SVGID_1_)" /><path
   style="display:none;fill:none;stroke:none;stroke-width:1px;stroke-linecap:butt;stroke-linejoin:miter;stroke-opacity:1"
   d="m 217.22857,1.2039285 436.51141,1.5356678 44.37969,5.9533365 35.27325,10.7104762 32.94208,12.964072 c 0,0 27.84607,16.213017 28.51077,16.615743 0.66471,0.402725 29.78031,23.423415 29.78031,23.423415 l 22.88765,20.151907 25.84576,31.369924 22.41044,40.06077 12.18792,25.88541 8.15521,29.88871 5.79351,27.15954 3.57776,42.32746 -2.37994,43.55306 -9.61813,41.09028 -11.92527,35.43022 -15.14081,28.28943 -12.90487,19.19599 -21.87967,28.58445 -19.10746,19.35665 -34.10028,26.90164 -29.1619,18.08643 -40.53516,17.78085 -42.43609,11.19021 -41.17949,4.26004 -88.17663,-0.32544 0.75572,347.30878 -338.38953,-0.83354 0.0859,-387.43267 8.24918,-45.62698 12.1876,-36.64652 20.71466,-40.44475 21.07088,-32.12874 19.9967,-25.52322 33.46369,-36.38815 35.92801,-31.14853 -26.81104,-22.16862 -32.58347,-35.30659 -27.1079,-32.49285 -19.51833,-30.22986 -16.29212,-29.3762 -18.13086,-46.511434 -9.35093,-47.380981 -2.1436,-28.02505 z"
   id="clip-two" /><path
   style="display:none;fill:none;stroke:none;stroke-width:1px;stroke-linecap:butt;stroke-linejoin:miter;stroke-opacity:1"
   d="m 588.3584,616.40355 157.38301,0.47196 34.56944,6.98915 29.76785,13.07707 21.24273,14.24156 20.80535,19.39817 18.05831,24.00928 13.32144,28.14039 7.76121,28.35482 3.69631,27.28901 -1.14746,151.58605 -148.17146,0.61066 -39.98176,-8.02521 -28.30302,-11.11756 -26.55076,-18.24297 -20.80001,-19.82053 -14.45577,-20.80463 -14.11688,-23.58168 -9.41662,-30.4004 -3.46766,-33.41733 z"
   id="clip-one" /><path
   class="st0"
   d="m 882.50003,131.8 -1.2,-1.8 c -10.6,-15.9 -23,-30.9 -36.8,-44.8 -55,-55 -128.2,-85.2 -206,-85.2 H 218.7 v 16.7 c 0,60.2 19,119 56.5,174.8 24.4,36.4 55.9,70.5 94.10003,101.8 C 331.4,325 299.4,359.6 275.2,395.1 237.7,450.3 218.7,507.3 218.7,564.7 V 932 H 562.00003 V 585.1 h 76.6 c 77.6,0 150.8,-31 206,-87.1 23.9,-24.3 43.3,-52.1 57.6,-82.8 18.2,-38.6 27.8,-80.9 27.8,-124.2 0,-0.1 0,-0.2 0,-0.3 0,-0.1 0,-0.2 0,-0.3 -0.1,-56.9 -16.5,-111.3 -47.5,-158.6 z M 279.3,188.7 C 242.4,133.8 223.7,75.9 223.7,16.7 V 4.9 h 414.80003 c 98.2,0 185,49.6 236.6,125.1 h -80.3 c -58.8,0 -125,11.8 -191.2,34.1 -66.1,22.3 -130.7,54.4 -186.6,92.9 -15.3,10.6 -30,21.6 -43.9,33 C 335,258.8 303.6,224.9 279.3,188.7 Z M 556.90003,927 H 223.6 V 585.1 h 333.30003 z m 284,-432.5 c -54.3,55.2 -126.2,85.6 -202.5,85.6 h -76.6 H 223.7 v -15.5 c 0,-56.3 18.7,-112.5 55.6,-166.8 24,-35.3 56,-69.8 93.90003,-101.3 13.8,11.2 28.4,22 43.9,32.4 55.5,37.5 120,68.6 186.6,90 65.8,21.2 131.9,32.4 191.2,32.4 h 81.2 c -10.3,15.4 -22,29.8 -35.2,43.2 z m 61.4,-92.3 c -1.5,3.6 -3.1,7.2 -4.7,10.7 -5.4,11.5 -11.6,22.6 -18.6,33.4 h -84.2 c -58.8,0 -124.4,-11.1 -189.7,-32.1 -66.1,-21.3 -130.2,-52.2 -185.4,-89.4 -15,-10.1 -29.3,-20.7 -42.7,-31.5 13.5,-11.1 27.8,-21.8 42.8,-32.1 113,-77.8 256.7,-126.1 375,-126.1 h 83.6 c 29.3,44.8 46.3,98.3 46.4,155.6 0,38.5 -7.6,76 -22.5,111.5 z m -170.9,211.9 h -142.5 v 149.1 c 0,44.5 16.9,86.6 47.5,118.3 31.4,32.5 73.9,50.4 119.8,50.4 h 142.5 v -149 c 0,-46.6 -17.6,-89.5 -49.6,-121 -31.3,-30.8 -73.1,-47.8 -117.7,-47.8 z m 162.3,312.9 h -137.5 c -44.5,0 -85.7,-17.4 -116.2,-48.9 -29.8,-30.8 -46.2,-71.6 -46.2,-114.9 V 619.1 h 137.5 c 43.3,0 83.8,16.5 114.2,46.3 31,30.5 48.1,72.2 48.1,117.5 z M 4.6,774.5 h 126.7 v 5.1 H 4.6 Z m 0,-61.5 v -5.3 L 123.7,612.9 H 4.6 v -5.1 h 126.7 v 5.3 L 12.4,707.9 H 131.3 V 713 Z M 68,283.3 c -33.5,0 -60.8,27.3 -60.8,60.8 0,33.6 27.3,61 60.8,61 33.5,0 60.8,-27.4 60.8,-61 0,-33.5 -27.3,-60.8 -60.8,-60.8 m 0,127 C 31.7,410.3 2.1,380.6 2.1,344.1 2.1,307.7 31.7,278 68,278 c 36.3,0 65.9,29.6 65.9,66.1 0,36.5 -29.6,66.2 -65.9,66.2 m 35.3,-182.5 c 15.7,-1.2 26.1,-18.5 26.1,-43.7 0,-24.7 -10.3,-40.1 -26.9,-40.1 -19.5,0 -26,21.6 -32.4,42.6 -6.5,21.2 -13.9,45.2 -36.1,45.2 -19.4,0 -32,-17.4 -32,-44.3 0,-26.7 12.9,-46.2 30.7,-46.8 v 4.9 c -15.8,1 -26.3,17.6 -26.3,41.9 0,23.9 10.3,38.7 26.9,38.7 18.9,0 25.2,-19.9 31.8,-41 l 0.2,-0.7 c 6.6,-21.6 14,-46.2 36.6,-46.2 19.3,0 31.8,18 31.8,45.8 0,28.1 -12.5,47.9 -30.6,48.7 z M 4.6,87.2 V 1.6 H 9.5 V 82.1 H 66.8 V 13.6 h 4.6 v 68.5 h 55 V 1.6 h 4.9 v 85.6 z m 40.1,749.5 c -17.1,0 -35.5,11.8 -35.5,37.9 v 50.2 h 71 v -50.2 c 0,-18.3 -11.1,-37.9 -35.5,-37.9 M 4.6,929.8 v -55.6 c 0,-29.2 20.7,-42.5 39.9,-42.5 23.3,0 40.2,17.8 40.2,42.5 v 13.5 l 4.5,-1.8 c 21.9,-9 36.9,-30.5 37.9,-54 h 5.1 c -1,27.6 -18.9,51.7 -45.2,60.4 l -2.2,0.7 v 31.8 h 46.6 v 5.1 H 4.6 Z M 44.7,455.6 c -17.1,0 -35.5,11.8 -35.5,37.9 v 50.2 h 71 v -50.2 c 0,-18.3 -11.1,-37.9 -35.5,-37.9 M 4.6,548.8 v -55.6 c 0,-29.2 20.7,-42.5 39.9,-42.5 23.3,0 40.2,17.8 40.2,42.5 v 13.5 l 4.5,-1.8 c 21.9,-9 36.9,-30.5 37.9,-54 h 5.1 c -1,27.6 -18.9,51.7 -45.2,60.4 l -2.2,0.7 v 31.8 h 46.6 v 5.1 z"
   id="path15-9"
   style="display:inline;fill:url(#SVGID_1_-7)" /></svg>
