<?xml version="1.0" encoding="UTF-8" standalone="no"?>
<svg
   xmlns:dc="http://purl.org/dc/elements/1.1/"
   xmlns:cc="http://creativecommons.org/ns#"
   xmlns:rdf="http://www.w3.org/1999/02/22-rdf-syntax-ns#"
   xmlns:svg="http://www.w3.org/2000/svg"
   xmlns="http://www.w3.org/2000/svg"
   version="1.1"
   id="Big_R"
   x="0px"
   y="0px"
   viewBox="0 0 712 932"
   xml:space="preserve"
   width="712"
   height="932"><metadata
   id="metadata23"><rdf:RDF><cc:Work
       rdf:about=""><dc:format>image/svg+xml</dc:format><dc:type
         rdf:resource="http://purl.org/dc/dcmitype/StillImage" /><dc:title></dc:title></cc:Work></rdf:RDF></metadata>
  <defs
   id="defs7">
    <clipPath
   id="clip-one"
   clipPathUnits="objectBoundingBox"
   transform="scale(0.0014044943820224719, 0.001072961373390558)">
      <path
   style="fill:none;stroke:none;stroke-width:1px;stroke-linecap:butt;stroke-linejoin:miter;stroke-opacity:1"
   d="m 588.3584,616.40355 157.38301,0.47196 34.56944,6.98915 29.76785,13.07707 21.24273,14.24156 20.80535,19.39817 18.05831,24.00928 13.32144,28.14039 7.76121,28.35482 3.69631,27.28901 -1.14746,151.58605 -148.17146,0.61066 -39.98176,-8.02521 -28.30302,-11.11756 -26.55076,-18.24297 -20.80001,-19.82053 -14.45577,-20.80463 -14.11688,-23.58168 -9.41662,-30.4004 -3.46766,-33.41733 z"
   id="path2" />
      <path
   style="fill:none;stroke:none;stroke-width:1px;stroke-linecap:butt;stroke-linejoin:miter;stroke-opacity:1"
   d="m 217.22857,1.2039285 436.51141,1.5356678 44.37969,5.9533365 35.27325,10.7104762 32.94208,12.964072 c 0,0 27.84607,16.213017 28.51077,16.615743 0.66471,0.402725 29.78031,23.423415 29.78031,23.423415 l 22.88765,20.151907 25.84576,31.369924 22.41044,40.06077 12.18792,25.88541 8.15521,29.88871 5.79351,27.15954 3.57776,42.32746 -2.37994,43.55306 -9.61813,41.09028 -11.92527,35.43022 -15.14081,28.28943 -12.90487,19.19599 -21.87967,28.58445 -19.10746,19.35665 -34.10028,26.90164 -29.1619,18.08643 -40.53516,17.78085 -42.43609,11.19021 -41.17949,4.26004 -88.17663,-0.32544 0.75572,347.30878 -338.38953,-0.83354 0.0859,-387.43267 8.24918,-45.62698 12.1876,-36.64652 20.71466,-40.44475 21.07088,-32.12874 19.9967,-25.52322 33.46369,-36.38815 35.92801,-31.14853 -26.81104,-22.16862 -32.58347,-35.30659 -27.1079,-32.49285 -19.51833,-30.22986 -16.29212,-29.3762 -18.13086,-46.511434 -9.35093,-47.380981 -2.1436,-28.02505 z"
   id="path4" />
    </clipPath>
  </defs>
  <style
   type="text/css"
   id="style2">
    .st0 {
      fill: url(#SVGID_1_);
    }

  </style>
   <linearGradient
   id="SVGID_1_"
   gradientUnits="userSpaceOnUse"
   x1="36.9168"
   y1="960.1241"
   x2="960.1322"
   y2="36.9087"
   gradientTransform="matrix(1 0 0 -1 0 1080)">
      <stop
   offset="0"
   style="stop-color:#5C3721"
   id="stop7" />
      <stop
   offset="0.2657"
   style="stop-color:#C5744A"
   id="stop9" />
      <stop
   offset="0.5284"
   style="stop-color:#5C3721"
   id="stop11" />
      <stop
   offset="0.7743"
   style="stop-color:#C57B57"
   id="stop13" />
      <stop
   offset="0.9996"
   style="stop-color:#5B3720"
   id="stop15" />
   </linearGradient>

  <path
   id="rect853"
   style="fill:#142835;fill-rule:evenodd;stroke-width:1.066;stroke-dashoffset:3"
   d="m 3.6838409,2.4423421 432.0563891,0.2978923 44.37891,5.953125 35.27344,10.7109376 32.94336,12.962891 c 0,0 27.84506,16.212508 28.50976,16.615234 0.66471,0.402725 29.78125,23.423828 29.78125,23.423828 l 22.88672,20.152344 25.84571,31.369136 23.16409,39.06175 11.43356,26.88552 8.15625,29.88867 5.79297,27.16016 3.57813,42.32617 -2.38086,43.55273 -9.61719,41.0918 -11.92578,35.42969 -15.14063,28.28906 -12.9043,19.19531 -21.88085,28.58594 -19.10743,19.35547 -34.09961,26.90234 -29.16211,18.08594 -40.53515,17.78125 -42.43555,11.18945 -41.17969,4.25977 -86.11497,-0.99791 -1.30495,347.98228 -338.3906225,-0.83398 0.085937,-387.43164 8.25,-45.62695 12.1875,-36.64649 20.714844,-40.44531 21.070312,-32.12891 19.996094,-25.52343 33.464845,-36.38868 35.92773,-31.14843 -26.8125,-22.16797 L 93.607422,236.30469 66.5,203.8125 46.980469,173.58203 30.689453,144.20508 12.558594,97.693359 3.2070312,50.3125 1.0625,22.289062 Z M 0.03306021,-0.01479844 -0.77148438,935.62109 H 714.03125 L 712.29142,-0.03682908 Z M 374.3795,616.70337 l 153.36269,0.17163 34.56836,6.99023 29.76757,13.07618 21.24415,14.24218 20.80468,19.39844 19.89647,23.49776 13.31227,28.77259 7.19518,28.34125 2.43397,27.18137 0.72539,151.35963 -150.0457,0.83764 -39.98047,-8.02539 -28.30468,-11.11719 -26.54883,-18.24414 -20.80078,-19.82032 -14.45508,-20.80468 -10.88303,-23.06875 -10.4674,-30.77543 -3.4668,-33.41601 z" />
  <path
   id="path486"
   style="fill:#113240;fill-opacity:1"
   d="m 4.92016,0 c 0.0637,0.4083 0.12103,0.81634 0.18359,1.22461 l 2.32813,0.008 C 7.36928,0.82171 7.31399,0.41111 7.25024,1.9e-4 Z m 23.619139,0 c 0.071,0.43564 0.13525,0.87107 0.20508,1.30664 l 2.30664,0.008 c -0.0699,-0.43813 -0.1301,-0.87636 -0.20117,-1.31445 z m 23.60156,0 c 0.0786,0.46346 0.14941,0.9271 0.22657,1.39062 l 2.32617,0.008 C 54.616299,0.9325 54.549639,0.46635 54.470939,1.9e-4 Z m 23.61914,0 c 0.0864,0.49081 0.16512,0.98185998 0.25,1.47265 l 2.31641,0.01 c -0.085,-0.49419002 -0.15967,-0.98822 -0.24609,-1.48242 z m 23.599606,0 c 0.0946,0.51888 0.18231,1.03777 0.27539,1.55664 l 2.314465,0.008 c -0.093,-0.5215 -0.17496,-1.04295 -0.26953,-1.56445 z m 23.611335,0 c 0.10317,0.54681 0.19742,1.09377 0.29883,1.64062 l 2.3418,0.008 C 125.51011,1.09913 125.41401,0.54965 125.31079,1.9e-4 Z m 21.84961,0 c 0.12206,0.57291 0.23678,1.14423 0.35742,1.7168 l 2.33789,0.008 C 147.39515,1.14953 147.28253,0.57579 147.1604,1.9e-4 Z m 70.2793,0 c 0.12011,0.65535 0.23199,1.30983 0.34961,1.96484 l 2.30469,0.008 C 217.63628,1.31483 217.53078,0.65853 217.4104,1.9e-4 Z m 34.93945,0 c 0.11444,0.69541 0.21473,1.39216 0.32617,2.08789 l 2.33008,0.008 c -0.11171,-0.69827 -0.21157,-1.39767 -0.32617,-2.0957 z m 35.14063,0 c 0.11125,0.73727 0.21099,1.47388 0.31836,2.21094 l 2.29883,0.008 C 287.6898,1.47911 287.59208,0.74021 287.48071,1.9e-4 Z m 23.29101,0 c 0.11929,0.76451 0.22866,1.52859 0.34375,2.29297 l 2.32813,0.008 C 311.02786,1.53413 310.92,0.76711 310.80102,1.9e-4 Z m 23.61914,0 c 0.1291,0.79253 0.24822,1.58462 0.37305,2.37695 l 2.30273,0.008 c -0.12467,-0.79494 -0.23628,-1.5899 -0.36523,-2.38476 z m 23.59961,0 c 0.13892,0.81961 0.26779,1.63924 0.40235,2.45898 l 2.32226,0.01 C 358.27959,1.64607 358.15871,0.82321 358.01977,2.3e-4 Z m 23.6211,0 c 0.14921,0.84763 0.28879,1.69524 0.43359,2.54297 l 2.31445,0.008 C 381.91461,1.70069 381.7798,0.85049 381.6311,1.9e-4 Z m 23.59961,0 c 0.15969,0.87565 0.30193,1.75124 0.45703,2.62695 l 2.32617,0.008 C 405.53866,1.75677 405.39031,0.87834 405.23071,1.9e-4 Z m 23.60937,0 c 0.17039,0.90309 0.33217,1.80598 0.49805,2.70898 l 2.33984,0.008 C 429.19208,1.81142 429.02977,0.9059 428.85962,1.9e-4 Z m 133.75,0 c -9.85999,1.79 -19.65727,3.58914 -29.39648,5.39648 -12.78248,2.3721 -25.42749,4.764861 -38.01367,7.166021 l 4.63281,1.40625 C 511.64452,11.276981 525.8977,8.6016204 540.29907,5.94922 551.12594,3.95515 562.02525,1.9725 573.00024,0 Z m 104.18945,0 c -19.305,3.32 -38.33594,6.72562 -57.11328,10.218751 -14.083,2.61984 -28.02362,5.28946 -41.82812,8.00976 -9.203,1.81354 -18.34466,3.64866 -27.42969,5.50782 -2.56228,0.52434 -5.10897,1.05601 -7.66211,1.58398 l 3.83594,1.50781 c 17.52975,-3.60661 35.27086,-7.12856 53.24805,-10.56445 4.92253,-0.94082 9.86272,-1.87448 14.82031,-2.80273 9.91517,-1.85651 19.89975,-3.6892806 29.95898,-5.4961006 C 642.34854,6.15803 652.48124,4.37705 662.68969,2.61914 667.79392,1.74018 672.91829,0.86687 678.06079,0 Z m 47.10157,10.449221 c -5.9775,0.95062 -11.92992,1.91511 -17.85743,2.89258 -5.92749,0.97746 -11.83001,1.96843 -17.70703,2.97265 -5.87702,1.00422 -11.72861,2.02184 -17.55468,3.05274 -5.82607,1.03089 -11.6277,2.07531 -17.40235,3.13281 -5.77465,1.0575 -11.52334,2.12887 -17.24609,3.21289 -11.4455,2.16805 -22.78641,4.38844 -34.02149,6.66211 -10.25948,2.07624 -20.41905,4.2014 -30.5,6.36523 1.35964,0.79187 1.47991,0.86318 2.92188,1.70313 9.11986,-1.94754 18.29493,-3.86792 27.56055,-5.74414 5.61788,-1.13758 11.26269,-2.26187 16.93359,-3.37305 11.34179,-2.22236 22.78891,-4.39148 34.33984,-6.50781 5.77547,-1.05817 11.57728,-2.10322 17.4043,-3.13477 5.82702,-1.03154 11.67856,-2.04983 17.55664,-3.05469 11.75617,-2.0097 23.61477,-3.96664 35.57227,-5.86914 z m 0,18.24023 c -12.035,1.8725 -23.9611,3.82307 -35.77539,5.84961 -5.90715,1.01327 -11.78744,2.046 -17.63868,3.09766 -5.85124,1.05165 -11.6739,2.12097 -17.46875,3.21093 -5.79484,1.08997 -11.56087,2.19995 -17.29882,3.32813 -5.73796,1.12818 -11.44833,2.27509 -17.12891,3.44141 -5.68058,1.16631 -11.33235,2.35226 -16.95508,3.55664 -2.51651,0.53903 -5.00498,1.096 -7.50976,1.64257 0.63839,0.50086 1.58887,1.25224 2.30664,1.81641 2.89364,-0.62856 5.77433,-1.26629 8.68359,-1.88476 5.46832,-1.16251 10.96538,-2.30695 16.48828,-3.4336 11.0458,-2.2533 22.19961,-4.43547 33.46094,-6.54492 5.63066,-1.05473 11.28881,-2.09072 16.97266,-3.10938 11.36769,-2.0373 22.8403,-4.0039 34.41796,-5.89648 5.78883,-0.94629 11.60469,-1.8732 17.44532,-2.7832 z m 0,18.23047 c -4.34563,0.65813 -8.67736,1.32947 -12.99219,2.01367 -4.31483,0.6842 -8.61265,1.38155 -12.89648,2.0918 -8.5677,1.42049 -17.07493,2.89351 -25.51758,4.41797 -8.44266,1.52445 -16.82059,3.10037 -25.13672,4.72851 -4.15807,0.81408 -8.30158,1.64053 -12.42774,2.48047 -4.12615,0.83995 -8.23601,1.69281 -12.33007,2.5586 -3.35104,0.70865 -6.68815,1.42833 -10.01758,2.15429 0.79099,0.62495 1.77299,1.39875 2.32617,1.83594 4.07221,-0.88331 8.13977,-1.76955 12.24414,-2.62695 3.91562,-0.81797 7.84617,-1.62552 11.79102,-2.41992 11.83453,-2.38321 23.79984,-4.65942 35.89453,-6.83008 8.06312,-1.44711 16.18414,-2.84682 24.36133,-4.19922 8.17718,-1.3524 16.41117,-2.65656 24.70117,-3.91406 z m 0,18.25 c -5.3225,0.7775 -10.61991,1.5784 -15.89258,2.4043 -10.54535,1.65179 -20.99152,3.40117 -31.33594,5.24609 -15.84912,2.82668 -31.45716,5.88569 -46.82812,9.16406 l 2.1289,1.87305 c 5.75382,-1.22027 11.52992,-2.41873 17.35157,-3.57617 4.85577,-0.96541 9.73617,-1.90852 14.63867,-2.83008 9.805,-1.84312 19.70336,-3.59859 29.69336,-5.26562 4.995,-0.83352 10.01195,-1.64428 15.05273,-2.4336 5.04078,-0.78931 10.10516,-1.55773 15.19141,-2.30273 z M 9.0373502,79.855471 c -0.0699,1.03506 -0.13172,2.07053 -0.21289,3.10547 -0.14382,1.83363 -0.3056302,3.66812 -0.4843802,5.5 h 2.300779 c 0.0109,-0.11318 0.0185,-0.22666 0.0293,-0.33985 z m 702.5234398,3.76367 c -5.0825,0.7225 -10.14555,1.47148 -15.18555,2.24609 -5.04,0.77461 -10.05844,1.57578 -15.05469,2.40235 -16.24986,2.68832 -32.25091,5.66419 -48.00976,8.89843 l 1.6289,1.978519 c 0.67952,-0.13877 1.3508,-0.28608 2.03125,-0.42383 4.8575,-0.983319 9.73953,-1.941169 14.64453,-2.873049 4.905,-0.93187 9.83391,-1.83855 14.78516,-2.71875 14.85375,-2.64058 29.91266,-5.0475 45.16016,-7.21875 z m 0,18.300779 c -7.6425,1.03688 -15.23481,2.1415 -22.77344,3.31446 -2.51288,0.39097 -5.02042,0.78925 -7.52149,1.19531 -2.50104,0.40605 -4.99528,0.82107 -7.48437,1.24219 -2.48909,0.42109 -4.97224,0.84903 -7.44922,1.28515 -2.47698,0.43612 -4.94737,0.87896 -7.41211,1.33008 -2.46473,0.45112 -4.92461,0.91086 -7.37695,1.37695 -1.81202,0.3444 -3.6167,0.69814 -5.42188,1.05078 l 1.62696,1.97461 c 1.26302,-0.2451 2.52312,-0.4932 3.78906,-0.73437 2.45234,-0.46719 4.91019,-0.92674 7.375,-1.37891 2.46481,-0.45217 4.93497,-0.89685 7.41211,-1.33398 7.43141,-1.31139 14.91918,-2.55501 22.45898,-3.73047 2.51327,-0.39182 5.03161,-0.77568 7.55664,-1.15234 5.05006,-0.75334 10.12446,-1.47743 15.22071,-2.16993 z M 18.254139,112.30469 c -0.22262,0.041 -0.44534,0.084 -0.66796,0.125 C 11.724549,113.50926 5.865,114.57938 0.01,115.64062 v 2.78907 c 6.41338,-1.16278 12.834449,-2.34481 19.255859,-3.5293 z m 693.306651,7.92578 c -15.31875,1.965 -30.42335,4.24191 -45.29493,6.82812 -2.47859,0.43104 -4.95039,0.87017 -7.41601,1.31836 -0.30329,0.0551 -0.60316,0.11453 -0.90625,0.16993 l 1.16602,2.08593 c 4.84345,-0.88167 9.71201,-1.73169 14.60546,-2.54687 4.98329,-0.83015 9.99149,-1.62587 15.02539,-2.38672 2.51696,-0.38043 5.04094,-0.7522 7.57032,-1.11524 5.05875,-0.72607 10.1425,-1.41796 15.25,-2.07421 z m 0,18.38867 c -2.37125,0.28438 -4.75013,0.5786 -7.13477,0.88281 -2.38464,0.30422 -4.7765,0.61885 -7.17383,0.94336 -7.19197,0.97354 -14.43915,2.0406 -21.73242,3.20508 -2.77798,0.44355 -5.56474,0.90459 -8.35547,1.37695 l 1.17383,2.10157 c 2.39789,-0.40397 4.79129,-0.79709 7.17969,-1.17969 2.43129,-0.38947 4.85854,-0.76895 7.2793,-1.13672 4.84148,-0.73555 9.66017,-1.42854 14.45507,-2.08008 2.39745,-0.32577 4.78912,-0.63984 7.17383,-0.94531 2.38472,-0.30547 4.76352,-0.60109 7.13477,-0.88672 z M 34.269769,150.66016 c -11.43752,2.00729 -22.86324,4.00301 -34.259769,5.9707 v 2.78906 c 11.532499,-1.99375 23.087929,-4.00728 34.662109,-6.04101 0.33474,-0.0588 0.6711,-0.11889 1.00586,-0.17774 z m 677.291021,6.35937 c -2.37438,0.26375 -4.75701,0.53911 -7.14453,0.82422 -2.38752,0.28511 -4.77977,0.5797 -7.17969,0.88672 -2.39992,0.30702 -4.80717,0.62561 -7.21875,0.95508 -4.49564,0.61419 -9.01664,1.2836 -13.54883,1.97851 l 1.17383,2.09766 c 1.70763,-0.25987 3.41669,-0.52146 5.11914,-0.76953 9.69125,-1.41219 19.29883,-2.63641 28.79883,-3.69141 z m 0,18.64063 c -2.56188,0.26812 -5.11873,0.54815 -7.66797,0.83984 -2.54925,0.29169 -5.09059,0.59494 -7.62696,0.91016 -2.53634,0.31521 -5.06663,0.64179 -7.58984,0.98046 -1.2936,0.17364 -2.58069,0.35938 -3.87109,0.53907 l 1.01758,2.16406 c 0.95057,-0.13149 1.89707,-0.26832 2.84961,-0.39648 5.04686,-0.6791 10.11931,-1.31169 15.21874,-1.89649 2.54973,-0.2924 5.10743,-0.57109 7.66993,-0.83984 z M 56.513909,188.3457 0.01,197.63086 v 2.75 l 58.111329,-9.54492 z m 655.046881,5.77344 c -5.135,0.4825 -10.24332,1.01754 -15.32422,1.60352 -1.51498,0.17471 -3.02286,0.36289 -4.53321,0.54687 l 0.60547,2.22266 c 3.8413,-0.46599 7.6931,-0.91213 11.56641,-1.31836 2.55464,-0.26793 5.11742,-0.5218 7.68555,-0.76367 z M 71.324459,209.5957 c -5.44714,0.99919 -10.91139,1.99649 -16.32813,3 -18.50361,3.42803 -36.83109,6.88274 -54.996089,10.36524 v 2.76953 c 18.178749,-3.48625 36.520489,-6.94379 55.039059,-10.375 6.06703,-1.12413 12.18361,-2.24094 18.28906,-3.35938 z m 16.84179,20.1875 c -29.88034,5.92586 -59.26315,12.04154 -88.146479,18.37696 v 0.01 2.79102 c 29.524209,-6.48132 59.576129,-12.72983 90.146479,-18.78149 z m 17.458991,19.54492 c -17.688091,3.68083 -35.157241,7.4683 -52.392581,11.36719 -8.99634,2.03511 -17.92998,4.09912 -26.80078,6.19336 -8.87081,2.09425 -17.6781288,4.21797 -26.421879,6.3711 v 2.81054 c 4.37375,-1.0775 8.7642402,-2.14813 13.169929,-3.21093 4.40568,-1.06282 8.82623,-2.11793 13.26367,-3.16602 8.87486,-2.09619 17.81374,-4.16407 26.81445,-6.20117 13.50107,-3.05565 27.14192,-6.04293 40.92188,-8.96485 4.521316,-0.9587 9.058191,-1.91082 13.609371,-2.85546 z m 605.93555,0.0215 c -2.37125,0.28437 -4.75013,0.5786 -7.13477,0.88281 -0.0786,0.01 -0.15775,0.0212 -0.23633,0.0312 l 0.19141,2.27344 c 2.39676,-0.30681 4.79674,-0.61922 7.17969,-0.90625 z m 0,18.40039 c -1.94014,0.21551 -3.88857,0.44235 -5.83789,0.67188 l 0.1914,2.25781 c 1.88512,-0.22207 3.76951,-0.44195 5.64649,-0.65039 z m -588.4375,0.53711 c -5.60639,1.19903 -11.19745,2.40828 -16.75586,3.63867 -4.56307,1.01006 -9.110041,2.02945 -13.640631,3.06055 -4.53059,1.0311 -9.04504,2.07289 -13.54297,3.125 -8.99585,2.10422 -17.92495,4.25138 -26.78906,6.43945 -4.43206,1.09404 -8.84725,2.19755 -13.24609,3.3125 -4.39885,1.11495 -8.78103,2.24112 -13.14649,3.37695 -4.36545,1.13584 -8.71499,2.28277 -13.04687,3.43946 -4.331889,1.15668 -8.647189,2.3225 -12.945319,3.5 v 2.84961 c 8.59625,-2.35875 17.260439,-4.67599 25.992189,-6.95118 8.73175,-2.27518 17.53074,-4.50784 26.39649,-6.69921 4.43287,-1.09569 8.88352,-2.18117 13.3496,-3.25586 13.39827,-3.22407 26.94485,-6.35221 40.638681,-9.38672 4.56461,-1.01151 9.14511,-2.01353 13.74219,-3.00391 1.71399,-0.36926 3.44164,-0.72938 5.16015,-1.0957 z m 20.72461,17.92383 C 93.871659,296.87783 45.883159,309.13546 0.01,322.9707 v 0.01 2.86914 c 46.687509,-14.11907 95.572679,-26.5965 146.52735,-37.41429 z m 567.71289,0.17968 c -1.42908,0.14957 -2.85185,0.31182 -4.27735,0.46876 l 0.19141,2.27929 c 1.36192,-0.1499 2.72081,-0.30604 4.08594,-0.44922 z m 0,18.45899 c -1.65575,0.15558 -3.30455,0.32552 -4.95508,0.49219 l -0.12695,2.30468 c 1.69277,-0.17136 3.38345,-0.34588 5.08203,-0.50586 z m -578.10352,5.875 C 87.062579,321.31659 42.542669,333.63555 0.01,347.67969 v 0.01 2.8711 C 41.188439,336.93672 84.232209,324.9276 129.04907,314.54492 Z m -31.14258,30.25195 c -4.547461,1.18731 -9.081211,2.38803 -13.585941,3.61524 -13.11828,3.57377 -26.05425,7.31517 -38.79687,11.22461 -4.24754,1.30314 -8.47331,2.62469 -12.67774,3.96484 -4.20442,1.34015 -8.38821,2.69916 -12.54882,4.07617 -4.16062,1.37702 -8.29795,2.77181 -12.41407,4.18555 C 8.17513,369.45672 4.08094,370.88954 0.01,372.33985 v 2.92969 c 0.003,-0.001 0.006,-0.003 0.01,-0.004 v 0.004 C 31.633699,363.9732 64.639569,353.78907 98.857885,344.73633 Z m 594.48633,27.30274 -0.15039,0.63867 c 0.0906,-0.21295 0.17856,-0.42574 0.26953,-0.63867 z m -620.687501,2.60351 c -0.53388,0.15926 -1.07425,0.31272 -1.60742,0.47266 -4.27177,1.28144 -8.52159,2.58397 -12.75,3.9082 -8.45684,2.64846 -16.82609,5.38246 -25.10547,8.20117 -8.27938,2.81871 -16.46985,5.72316 -24.56641,8.71094 C 8.03594,393.66968 4.01157,395.18478 0.01,396.72071 v 2.95899 c 15.992499,-6.16251 32.364869,-11.98845 49.093749,-17.47267 7.94277,-2.60387 15.97083,-5.12494 24.07227,-7.57422 z m 634.476561,5.09766 c -0.3,0.68 -0.59062,1.35906 -0.89062,2.03906 -1.785,4.1525 -3.40029,8.22774 -4.84766,12.23242 -0.72368,2.00235 -1.40523,3.98664 -2.04492,5.95508 -0.63969,1.96844 -1.23699,3.92086 -1.79297,5.85742 -0.27799,0.96828 -0.54562,1.93189 -0.80273,2.89258 -0.51423,1.92139 -0.98704,3.82815 -1.41797,5.7207 -0.64639,2.83884 -1.19844,5.6461 -1.6582,8.42579 -0.15326,0.92656 -0.29711,1.85098 -0.42969,2.77148 -0.13259,0.9205 -0.25524,1.83727 -0.36719,2.75195 -0.33586,2.74407 -0.57772,5.46382 -0.72851,8.16016 -0.20106,3.59512 -0.23929,7.14934 -0.11329,10.67383 0.0315,0.88112 0.0732,1.76133 0.125,2.63867 0.10371,1.75469 0.24868,3.50109 0.4336,5.24219 0.27738,2.61164 0.64615,5.2101 1.10547,7.79687 0.1531,0.86226 0.31698,1.72399 0.49023,2.58399 0.17325,0.86 0.35547,1.71817 0.54883,2.57617 0.19336,0.858 0.39789,1.71406 0.61133,2.57031 1.3,5.27 2.99257,10.375 4.98633,15.34375 0.49842,1.24219 1.01416,2.47752 1.54882,3.70313 0.53467,1.2256 1.08821,2.44242 1.65625,3.65234 0.56805,1.20992 1.15143,2.41228 1.75,3.60742 0.59858,1.19514 1.21164,2.3832 1.83789,3.56445 v -5.02929 c -0.50375,-1.015 -0.99695,-2.03449 -1.47851,-3.0586 -1.44469,-3.0723 -2.78485,-6.1886 -3.9961,-9.35546 -0.40375,-1.05564 -0.7939,-2.11606 -1.16796,-3.1836 -0.37407,-1.06754 -0.73172,-2.14249 -1.07422,-3.22266 -0.685,-2.16031 -1.30602,-4.34554 -1.85352,-6.56054 -0.20344,-0.81594 -0.39718,-1.63354 -0.58203,-2.45117 -0.36969,-1.63527 -0.70293,-3.27258 -0.99805,-4.91602 -0.29511,-1.64344 -0.55122,-3.29186 -0.77148,-4.94531 -0.22026,-1.65345 -0.4037,-3.31322 -0.54883,-4.97852 -0.14513,-1.6653 -0.25255,-3.33663 -0.32226,-5.01562 -0.0697,-1.67899 -0.10168,-3.36603 -0.0957,-5.06055 0.003,-0.84726 0.0151,-1.69539 0.0371,-2.54687 0.022,-0.85149 0.0528,-1.7046 0.0937,-2.56055 0.1229,-2.56784 0.33234,-5.15742 0.62695,-7.76953 0.0982,-0.87071 0.20492,-1.74306 0.32227,-2.61914 0.11735,-0.87608 0.24432,-1.75503 0.38086,-2.63672 0.4096,-2.64507 0.9054,-5.31593 1.48828,-8.01563 0.19429,-0.89989 0.39967,-1.80255 0.61328,-2.70898 1.70892,-7.25142 4.03663,-14.71562 6.99219,-22.45117 0.73889,-1.93389 1.51648,-3.88477 2.33398,-5.85352 z M 54.613519,400.5625 c -2.09137,0.70869 -4.19397,1.40576 -6.27344,2.12695 -8.24265,2.85868 -16.39336,5.81303 -24.44922,8.86328 -4.02793,1.52513 -8.03148,3.07565 -12.01172,4.64844 C 7.89891,417.77397 3.94188,419.36992 0.01,420.99023 v 2.95899 c 16.940109,-7.00998 34.349249,-13.56047 52.171879,-19.67774 z m 628.945311,8.76562 -3.54687,6.625 c -2.66095,16.62143 -2.26529,32.06698 1.09766,47.04688 5.07,22.73 17.0214,42.77953 29.4414,62.01953 0.01,0.02 0.0291,0.0405 0.0391,0.0605 v -4.18946 c -11.62,-18.17 -22.53023,-37.14062 -27.24023,-58.39062 -3.77863,-16.76566 -3.74451,-34.13848 0.20898,-53.17188 z M 36.947499,429.89453 C 24.577059,434.62472 12.253929,439.67216 0.01,445.07031 v 0.006 c -0.003,0.001 -0.007,0.002 -0.01,0.004 v 2.98047 0.01 c 11.628019,-5.14704 23.328509,-9.97717 35.074219,-14.51758 z m 626.775401,14.70508 -2.02539,3.01367 c 0.38503,3.79129 0.94088,7.62067 1.71289,11.48633 5.15,26.24 19.05023,49.24023 32.49023,71.49023 l 2.16016,3.58008 c 4.28,7.09 8.44929,14.11961 12.52929,21.09961 v -4.5293 l -0.48046,-0.81054 c -3.30002,-5.6 -6.65985,-11.24946 -10.08985,-16.93946 l -2.16015,-3.56054 c -13.33002,-22.09 -27.12899,-44.90977 -32.20899,-70.75977 -0.94478,-4.74506 -1.5662,-9.43829 -1.92773,-14.07031 z M 21.951409,459.17383 C 14.609959,462.32028 7.29306,465.59429 0.01,469.00977 v 3.00976 0.01 c 6.88446,-3.24306 13.798589,-6.36078 20.736329,-9.36156 l 1.08203,-3.25391 z m 627.984381,4.92578 -1.76563,2.30469 c 0.31966,1.21083 0.6398,2.42143 0.99024,3.62109 0.47175,1.61499 0.97007,3.21934 1.49414,4.81445 1.04812,3.19024 2.19711,6.34159 3.42773,9.45899 1.23063,3.1174 2.54242,6.20242 3.91992,9.25586 5.51,12.21375 12.05328,23.95109 18.48828,35.49609 l 1.20899,2.14844 c 2.59,4.64 5.23133,9.39672 7.91211,14.26172 5.36156,9.73 10.88594,19.89554 16.5,30.43554 2.80703,5.27 5.63601,10.63399 8.47851,16.08399 v -4.88086 c -2.67,-5.0925 -5.32812,-10.1068 -7.96484,-15.03711 -5.27344,-9.86063 -10.46297,-19.38477 -15.50391,-28.52539 -2.52046,-4.57031 -5.0039,-9.04547 -7.4414,-13.41797 l -1.20899,-2.17969 c -1.595,-2.86375 -3.19783,-5.73898 -4.78906,-8.63086 -3.18246,-5.78375 -6.32199,-11.63117 -9.27539,-17.57617 -0.73835,-1.48625 -1.46485,-2.97965 -2.17773,-4.47851 -1.42578,-2.99774 -2.79657,-6.02188 -4.09375,-9.07618 -1.94578,-4.58144 -3.72707,-9.23132 -5.28321,-13.96289 -0.51871,-1.57718 -1.01201,-3.16191 -1.47851,-4.75781 -0.51806,-1.77226 -0.98982,-3.56068 -1.4375,-5.35742 z m -12.22266,15.9668 -1.63867,2.14257 c 1.07238,2.94253 2.20271,5.86142 3.39648,8.75391 1.96266,4.75547 4.07118,9.44749 6.26563,14.08789 0.73148,1.5468 1.4723,3.08902 2.2207,4.625 1.4968,3.07195 3.02455,6.1217 4.5625,9.15625 1.53795,3.03455 3.08711,6.05361 4.63086,9.05859 l 0.17969,0.36915 c 10.8375,21.075 22.08047,42.95429 33.27148,65.51171 2.23821,4.51149 4.47477,9.05055 6.70508,13.61524 2.23031,4.56469 4.45484,9.15562 6.66992,13.77148 2.21508,4.61586 4.42078,9.25688 6.61328,13.92188 v -5.2793 c -2.115,-4.4725 -4.2408,-8.92439 -6.375,-13.35156 -4.26839,-8.85434 -8.56941,-17.61582 -12.875,-26.27734 -4.30558,-8.66153 -8.61629,-17.22239 -12.90625,-25.67579 -2.14498,-4.2267 -4.28484,-8.42586 -6.41601,-12.59765 -4.26235,-8.3436 -8.49071,-16.575 -12.6582,-24.6875 l -0.17969,-0.36133 c -1.5325,-2.9825 -3.07037,-5.9766 -4.59766,-8.98828 -2.29093,-4.51752 -4.55678,-9.07261 -6.73633,-13.67578 -0.72651,-1.53439 -1.44315,-3.07346 -2.14843,-4.61914 -0.70529,-1.54569 -1.39851,-3.09839 -2.07813,-4.65625 -0.67962,-1.55787 -1.34656,-3.12243 -1.99609,-4.69336 -0.64953,-1.57094 -1.28148,-3.14754 -1.89649,-4.73242 -0.61501,-1.58491 -1.213,-3.1776 -1.78906,-4.77735 -0.0766,-0.21285 -0.1487,-0.4275 -0.22461,-0.64062 z m -635.62305,2.2539 c 0.37,1.975 0.75961,3.97594 1.16992,6.00391 0.41032,2.02797 0.84172,4.08359 1.29297,6.16797 0.9025,4.16875 1.88703,8.45217 2.95703,12.86719 0.0164,0.0676 0.0344,0.13551 0.0508,0.20312 l 1.01172,-5.58984 c -0.60964,-2.61665 -1.20016,-5.20307 -1.74804,-7.73047 -0.885,-4.0825 -1.68907,-8.05188 -2.41407,-11.92188 z m 623.29883,11.42774 -1.73828,1.76172 c 4.21645,10.41795 8.8817,20.35797 13.32031,29.77929 4.71,10.04 9.51914,20.17133 14.36914,30.36133 19.93,41.99 40.68,85.7 59.25,130.5 v -5.87109 c -18.02,-43.1 -37.96968,-85.13008 -57.17968,-125.58008 -4.85,-10.22 -9.66063,-20.32867 -14.39063,-30.38867 -4.54627,-9.65027 -9.33881,-19.85636 -13.63086,-30.5625 z m -13.0039,12.69336 -1.85743,1.46484 c 1.94511,4.74837 3.97825,9.54133 6.07227,14.41406 8.7,20.26 17.65039,40.32985 27.15039,61.58985 23.76,53.23 47.83984,107.15937 66.83984,161.60937 v -6.85937 c -0.01,-0.02 -0.01,-0.0308 -0.0195,-0.0508 -18.67,-52.42 -41.86023,-104.36891 -64.74023,-155.62891 -9.48,-21.25 -18.46086,-41.31102 -27.13086,-61.54102 -2.18163,-5.07333 -4.29801,-10.05949 -6.31445,-14.99804 z m -14.33789,11.31054 -1.86524,1.47071 c 0.0163,0.0419 0.0325,0.085 0.0488,0.12695 2.7525,7.06 5.56015,14.10867 8.42187,21.17383 1.43086,3.53258 2.87509,7.06857 4.33204,10.61328 1.45693,3.54471 2.92796,7.09805 4.41015,10.66211 2.96438,7.12812 5.97664,14.30187 9.03711,21.55078 3.06047,7.24891 6.16836,14.5725 9.31836,22 9.58125,22.56875 19.21947,45.27329 28.46094,68.08594 3.69658,9.12506 7.33079,18.26744 10.87109,27.42578 1.77015,4.57917 3.51617,9.16117 5.23633,13.74805 1.72016,4.58686 3.41329,9.17731 5.07617,13.77148 4.15721,11.48542 8.12413,22.993 11.84375,34.51953 3.71963,11.52653 7.19304,23.07354 10.36133,34.63477 1.26731,4.62449 2.48598,9.25153 3.65234,13.88086 0.58318,2.31466 1.15241,4.62951 1.70899,6.94531 0.55657,2.31579 1.09984,4.63234 1.6289,6.94922 v -10.02149 c -1.62937,-6.66375 -3.36932,-13.3213 -5.20898,-19.97461 -1.22644,-4.43553 -2.49672,-8.86838 -3.80859,-13.29883 -0.65594,-2.21522 -1.32196,-4.43064 -1.99805,-6.64453 -0.67609,-2.21388 -1.36315,-4.42617 -2.0586,-6.63867 -0.69542,-2.2125 -1.39929,-4.42564 -2.11328,-6.63672 -0.71398,-2.21107 -1.43819,-4.42125 -2.16992,-6.63086 -0.73173,-2.2096 -1.47203,-4.41886 -2.2207,-6.62695 -8.98401,-26.49702 -19.15858,-52.88228 -29.83008,-79.11914 -1.77858,-4.37281 -3.57008,-8.74113 -5.37305,-13.10547 -3.60593,-8.72867 -7.255,-17.44017 -10.91992,-26.13281 -3.66492,-8.69264 -7.34703,-17.36578 -11.01953,-26.01953 -7.8875,-18.55 -15.48896,-36.45635 -22.76953,-54.16406 -1.45611,-3.54156 -2.9,-7.07618 -4.33008,-10.60547 -1.43008,-3.5293 -2.84654,-7.05393 -4.25,-10.57813 -1.40346,-3.5242 -2.79367,-7.04797 -4.16992,-10.57422 -0.10115,-0.26026 -0.2016,-0.52647 -0.30273,-0.78711 z m -15.02735,11.85547 -1.87109,1.47656 c 6.22899,17.00424 12.9365,34.24102 19.80078,51.42774 5.30912,13.29293 10.70851,26.55344 16.04101,39.64844 5.1675,12.69875 10.35373,25.44261 15.46875,38.22461 2.24583,5.61211 4.46869,11.23495 6.67969,16.86132 l 5.0918,6.76758 c -0.83309,-2.141 -1.6661,-4.28286 -2.50586,-6.42187 -2.4666,-6.28291 -4.95866,-12.55745 -7.46875,-18.82227 -2.51009,-6.26481 -5.03763,-12.52032 -7.57031,-18.76562 -2.53268,-6.24531 -5.0711,-12.47875 -7.60547,-18.70313 -3.5475,-8.725 -7.12632,-17.52437 -10.68946,-26.35547 -3.56312,-8.83109 -7.1107,-17.6939 -10.5957,-26.55078 -5.11037,-12.98764 -10.08157,-25.95682 -14.77539,-38.78711 z m -16.27148,10.5293 -1.98828,1.23242 c 2.04932,5.91469 4.13869,11.84133 6.29101,17.78125 1.85307,5.11404 3.73883,10.23453 5.65039,15.35547 7.64625,20.48375 15.69438,40.97978 23.60938,61.13476 1.20698,3.07754 2.4133,6.16519 3.62109,9.24805 l 3.30664,2.2168 c -1.60309,-4.09436 -3.20605,-8.19033 -4.80859,-12.27539 -9.88125,-25.16875 -19.96494,-50.87617 -29.21485,-76.41992 -1.84998,-5.10875 -3.66648,-10.21078 -5.4414,-15.30078 -0.34598,-0.99216 -0.68263,-1.98146 -1.02539,-2.97266 z M 0.26,548.10938 v 8.25 c 0.36766,1.26409 0.75325,2.52873 1.12696,3.79296 l 0.002,-8.09179 c -0.37683,-1.31726 -0.75922,-2.63464 -1.12891,-3.95117 z m 549.47852,2.29882 -2.09961,0.91992 c 0.17996,0.54452 0.35423,1.08816 0.53516,1.63282 2.83841,8.54453 5.79547,17.10617 8.83203,25.66601 2.02437,5.70657 4.08355,11.41217 6.16797,17.11133 2.08441,5.69916 4.19242,11.39188 6.31445,17.07227 2.12472,5.68758 4.26242,11.36217 6.40234,17.01953 l 2.92579,1.28515 c -6.67113,-17.61372 -13.33476,-35.40201 -19.64844,-53.20312 -2.02156,-5.69969 -4.0067,-11.40072 -5.94531,-17.0957 -0.96931,-2.84749 -1.92674,-5.69297 -2.8711,-8.53711 -0.20727,-0.62424 -0.40723,-1.24707 -0.61328,-1.8711 z m -18.23437,7.99805 -2.09375,0.91992 c 0.40599,1.28599 0.8034,2.57117 1.21484,3.85742 2.9811,9.31952 6.10244,18.64567 9.31445,27.95899 3.21201,9.31331 6.51504,18.6125 9.86133,27.88086 0.30115,0.8341 0.6064,1.66252 0.9082,2.49609 l 2.61133,0.52735 c -0.45332,-1.25019 -0.91337,-2.49275 -1.36523,-3.74415 -5.5707,-15.42753 -11.02147,-30.943 -16.12891,-46.45507 -1.47557,-4.48156 -2.90957,-8.96255 -4.32226,-13.44141 z m -18.58789,8.1543 -2.09961,0.92187 c 0.69642,2.2892 1.39988,4.5784 2.11328,6.86719 1.0383,3.33118 2.09328,6.66117 3.16406,9.99023 1.07078,3.32907 2.15701,6.65687 3.25586,9.98243 2.1977,6.6511 4.44695,13.29319 6.73047,19.92187 0.30219,0.87721 0.60876,1.7522 0.91211,2.62891 l 0.75,0.002 1.78125,0.35938 c -2.71863,-7.84217 -5.39986,-15.70075 -8.00196,-23.57422 -1.09705,-3.31949 -2.18109,-6.64219 -3.25,-9.96485 -1.8368,-5.70964 -3.61923,-11.4218 -5.35546,-17.13476 z m -19.66407,5.56836 -2.21289,0.58203 c 4.29789,14.7377 8.97797,29.45008 13.84961,44.0957 l 2.39453,0.008 c -4.6118,-13.84811 -9.05524,-27.75687 -13.16601,-41.6875 -0.2948,-0.99899 -0.57376,-1.99889 -0.86524,-2.99804 z m -19.98633,5.26953 -2.19921,0.58008 c 0.17202,0.61351 0.33248,1.22846 0.50586,1.84179 3.48933,12.34416 7.25247,24.65363 11.17382,36.91992 l 2.39063,0.008 c -0.13412,-0.41903 -0.2725,-0.83673 -0.40625,-1.25586 -1.27507,-3.99574 -2.53268,-7.99566 -3.76953,-12 -1.23686,-4.00435 -2.45364,-8.01312 -3.64453,-12.02539 -1.39021,-4.68379 -2.73491,-9.37458 -4.05079,-14.06836 z m -34.49414,4.36523 -2.3125,0.23828 c 1.00124,3.14282 2.00244,6.28362 3.03907,9.43164 1.37625,4.17938 2.78062,8.37172 4.21093,12.60157 1.40547,4.15636 2.83647,8.3513 4.28516,12.60156 l 2.41992,0.008 -0.17383,-0.51367 c -1.475,-4.3225 -2.93117,-8.585 -4.36132,-12.80859 -1.43016,-4.2236 -2.83532,-8.40821 -4.21094,-12.58008 -0.98826,-2.9971 -1.94117,-5.9869 -2.89649,-8.97852 z m -38.08984,1.10742 c 2.82864,7.97619 5.7892,15.9296 8.6875,23.69922 1.23595,3.30948 2.47643,6.62649 3.71094,9.96094 l 2.42969,0.008 c -1.33229,-3.6034 -2.6671,-7.19066 -4,-10.75976 -2.80769,-7.51351 -5.671,-15.1952 -8.41407,-22.89844 z m -61.74219,0.0937 0.006,2.63477 c 4.92359,2.8774 9.98121,5.65204 15.16602,8.31836 7.02488,3.61259 14.28058,7.02788 21.73828,10.24023 1.86442,0.80309 3.74148,1.5936 5.63086,2.3711 v -2.46875 c -3.7075,-1.5325 -7.36828,-3.11532 -10.97656,-4.74805 -1.80414,-0.81637 -3.59495,-1.64528 -5.37305,-2.48633 -5.33432,-2.52313 -10.54953,-5.15777 -15.63477,-7.89844 -1.69507,-0.91355 -3.37525,-1.83817 -5.04101,-2.77539 -1.66576,-0.93721 -3.3175,-1.88703 -4.95313,-2.84765 -0.18983,-0.11149 -0.37308,-0.22804 -0.5625,-0.33985 z M 0.26,617.4707 v 7.14844 c 0.36789,1.09006 0.74177,2.1764 1.11133,3.26563 l 0.002,-7.11524 C 1.00391,619.66908 0.62739,618.57209 0.26005,617.4707 Z m 338.75977,2.04492 0.006,2.69727 c 0.26164,0.16503 0.51688,0.33563 0.7793,0.5 3.72823,2.33526 7.53086,4.60287 11.40234,6.80273 1.93574,1.09994 3.88942,2.18446 5.85938,3.25 3.93992,2.1311 7.94713,4.19223 12.01757,6.1836 0.43172,0.21121 0.87156,0.41343 1.30469,0.62305 l -0.002,-2.5293 c -2.35645,-1.14938 -4.69849,-2.31487 -7.01172,-3.51172 -1.96551,-1.01695 -3.91449,-2.05074 -5.84766,-3.10156 -3.86632,-2.10164 -7.66779,-4.26897 -11.39843,-6.50391 -1.86533,-1.11747 -3.71315,-2.2521 -5.54297,-3.40234 -0.5272,-0.3314 -1.04215,-0.67365 -1.56641,-1.00782 z m 0.082,37.53126 0.006,2.71679 c 0.85277,0.5647 1.69234,1.14193 2.55274,1.69922 2.08524,1.35066 4.19419,2.67968 6.32422,3.98633 4.26004,2.6133 8.60776,5.13865 13.0371,7.57226 2.21467,1.21681 4.44859,2.41106 6.70313,3.58204 0.89728,0.46603 1.81143,0.91238 2.71484,1.37109 l -0.004,-2.5332 c -5.26878,-2.69783 -10.44447,-5.50713 -15.49219,-8.45508 -4.26586,-2.49133 -8.44885,-5.06983 -12.54297,-7.73438 -1.11171,-0.72352 -2.20028,-1.46893 -3.29883,-2.20507 z M 0.26,683.33984 v 6.99024 c 0.36882,1.08095 0.72999,2.15463 1.09766,3.23437 l 0.002,-6.99414 c -0.36892,-1.07933 -0.72985,-2.14999 -1.09961,-3.23047 z m 338.92579,12.35938 0.006,2.74609 c 0.54961,0.37818 1.09534,0.75969 1.64843,1.13477 1.15201,0.78123 2.31144,1.55457 3.47852,2.32226 1.16707,0.7677 2.34148,1.52919 3.52344,2.28321 5.90977,3.77009 12.0042,7.36792 18.27148,10.78515 1.44872,0.78992 2.90993,1.56743 4.37695,2.33789 l -0.004,-2.54101 c -1.37344,-0.72824 -2.7406,-1.46355 -4.09766,-2.20899 -1.23092,-0.67614 -2.45463,-1.35868 -3.67187,-2.04882 -1.21725,-0.69015 -2.42748,-1.38779 -3.63086,-2.0918 -1.20339,-0.70401 -2.40051,-1.41509 -3.58985,-2.13281 -2.37867,-1.43546 -4.72943,-2.89918 -7.05078,-4.38868 -1.16067,-0.74475 -2.31292,-1.49585 -3.45898,-2.2539 -1.95669,-1.29423 -3.88748,-2.61094 -5.80078,-3.94336 z m 0.0859,39.44726 0.006,2.77344 c 4.48716,3.16953 9.07071,6.23046 13.75391,9.16406 3.92014,2.45562 7.90476,4.82817 11.95117,7.11329 1.34881,0.7617 2.70432,1.51345 4.06641,2.25585 0.4956,0.27013 0.99681,0.53128 1.49414,0.79883 l -0.004,-2.55859 c -0.42421,-0.23054 -0.85246,-0.45508 -1.27539,-0.6875 -1.33844,-0.73554 -2.67076,-1.48013 -3.99609,-2.23438 -1.32533,-0.75424 -2.64323,-1.51822 -3.95508,-2.29101 -2.62371,-1.54558 -5.21945,-3.12733 -7.78711,-4.74609 -2.56766,-1.61879 -5.1065,-3.27418 -7.61523,-4.96485 -2.24019,-1.50969 -4.44741,-3.05698 -6.63868,-4.62305 z m 0.0879,40.32227 0.006,2.8125 c 1.28796,0.92022 2.58397,1.83251 3.89063,2.73437 1.37023,0.94575 2.752,1.88137 4.14258,2.80665 2.78114,1.85056 5.60196,3.66046 8.46289,5.42773 1.43046,0.88363 2.87029,1.75669 4.32031,2.61914 1.45002,0.86245 2.90959,1.71561 4.37891,2.55664 2.93862,1.68206 5.91545,3.31915 8.92968,4.91406 0.30215,0.15988 0.60922,0.31367 0.91211,0.47266 l -0.38281,-1.23438 -0.16797,-1.61718 c -1.25267,-0.6675 -2.50267,-1.33679 -3.74218,-2.01953 -1.47644,-0.81324 -2.94285,-1.638 -4.4004,-2.47266 -1.45754,-0.83466 -2.90535,-1.67931 -4.34375,-2.53516 -1.43839,-0.85584 -2.8681,-1.72281 -4.28711,-2.59961 -1.41899,-0.87679 -2.82723,-1.7646 -4.22656,-2.6621 -4.6082,-2.95564 -9.10327,-6.02859 -13.49218,-9.20313 z m 337.42773,1.59375 0.17773,1.3125 -0.0547,7.2168 c 0.0395,0.13743 0.0817,0.27467 0.12109,0.41211 1.85728,6.48175 3.62495,12.96736 5.29102,19.45703 0.83303,3.24483 1.64081,6.49177 2.42187,9.73828 0.78106,3.24651 1.53542,6.4942 2.26172,9.74219 0.7263,3.24799 1.42304,6.49682 2.0918,9.74609 0.66876,3.24927 1.30954,6.49771 1.91796,9.74805 1.5211,8.12584 2.84926,16.25441 3.9629,24.38476 1.33636,9.75643 2.3622,19.51551 3.04296,29.27344 0.22693,3.25264 0.41595,6.5054 0.56446,9.75781 0.22276,4.87861 0.35601,9.75725 0.39453,14.63477 0.0128,1.62584 0.0142,3.25129 0.006,4.87695 -0.008,1.62567 -0.0268,3.25149 -0.0566,4.87695 h 2.30078 c 0.04,-2.26 0.0703,-4.50953 0.0703,-6.76953 0,-1.59718 -0.0111,-3.19572 -0.0312,-4.79297 -0.0606,-4.79173 -0.21094,-9.58315 -0.44726,-14.375 -0.15755,-3.19456 -0.35353,-6.38958 -0.58594,-9.58398 -0.11621,-1.5972 -0.24057,-3.19389 -0.375,-4.79102 -0.53772,-6.38848 -1.22086,-12.77571 -2.03711,-19.16211 -1.42844,-11.17616 -3.26746,-22.34796 -5.46094,-33.51171 -0.62671,-3.18965 -1.28156,-6.37818 -1.96484,-9.56641 -0.68328,-3.18823 -1.39556,-6.37586 -2.13282,-9.5625 -1.47449,-6.37327 -3.05383,-12.74352 -4.72851,-19.10938 -0.83734,-3.18291 -1.69856,-6.36607 -2.58203,-9.54687 -1.33462,-4.80509 -2.73557,-9.60652 -4.16797,-14.40625 z M 0.26,799.10938 v 9.85156 c 0.36658,1.60007 0.71611,3.20386 1.07032,4.80664 l 0.002,-10.17774 c -0.35503,-1.49413 -0.7077,-2.98927 -1.07227,-4.48046 z m 339.18751,17.29687 0.008,2.79883 c 1.33316,0.95965 2.67188,1.91244 4.02148,2.84961 6.03742,4.19242 12.23768,8.15892 18.57813,11.88672 3.17022,1.86389 6.37475,3.66848 9.61328,5.41211 1.61927,0.87181 3.2474,1.72711 4.88281,2.56836 1.63541,0.84122 3.27875,1.6682 4.92969,2.47851 v -2.51953 c -1.62406,-0.805 -3.24091,-1.62573 -4.84961,-2.46094 -1.6087,-0.8352 -3.20998,-1.6857 -4.80274,-2.55078 -1.59273,-0.86508 -3.17772,-1.74601 -4.7539,-2.64062 -1.57618,-0.89462 -3.14411,-1.80275 -4.70313,-2.72657 -1.55901,-0.92382 -3.10913,-1.86176 -4.65039,-2.81445 -1.54125,-0.95269 -3.07281,-1.92112 -4.5957,-2.90234 -1.52289,-0.98123 -3.03709,-1.97495 -4.54102,-2.98438 -3.08789,-2.07259 -6.1329,-4.20519 -9.13671,-6.39453 z m 0.0527,23.58203 0.006,2.74219 c 1.98729,1.34343 3.99411,2.66131 6.01758,3.95508 6.75403,4.3184 13.70735,8.35793 20.83203,12.09179 1.42493,0.74678 2.85648,1.48094 4.29492,2.20313 3.58,1.82 7.18008,3.53992 10.83008,5.16992 v -2.49023 c -1.64,-0.75 -3.28367,-1.51563 -4.91992,-2.29688 -1.63625,-0.78125 -3.26586,-1.57758 -4.88086,-2.39258 -4.27969,-2.14781 -8.49902,-4.40756 -12.6543,-6.77148 -1.38509,-0.78797 -2.76436,-1.58725 -4.13477,-2.39844 -1.37038,-0.81119 -2.73264,-1.63475 -4.08789,-2.46875 -1.35524,-0.834 -2.7033,-1.67875 -4.04296,-2.53515 -1.33967,-0.85642 -2.67049,-1.72313 -3.99415,-2.60157 -1.09503,-0.72672 -2.18161,-1.46546 -3.26562,-2.20703 z m 0.0527,24.39649 0.006,2.6914 c 1.32103,0.82737 2.63845,1.65932 3.97461,2.46485 1.3228,0.79746 2.65325,1.58384 3.99024,2.35937 5.34795,3.10213 10.80817,6.02887 16.36523,8.76563 2.77853,1.36837 5.58084,2.68825 8.40625,3.96093 1.41271,0.63635 2.83211,1.26117 4.25586,1.87305 1.65,0.7 3.25969,1.40055 4.92969,2.06055 v -2.45117 c -1.35,-0.54 -2.68977,-1.12922 -4.00977,-1.69922 -4.23562,-1.82063 -8.42371,-3.75192 -12.55664,-5.78711 -1.37764,-0.6784 -2.74989,-1.36683 -4.11523,-2.06836 -1.36534,-0.70153 -2.72358,-1.41437 -4.07617,-2.13867 -1.3526,-0.72431 -2.69966,-1.46032 -4.03907,-2.20704 -4.4558,-2.48412 -8.83178,-5.10019 -13.13086,-7.82421 z m 75.80665,12.17382 c 0.13695,0.84804 0.28111,1.69755 0.41406,2.54493 0.62234,3.96671 1.20009,7.9264 1.73047,11.8789 0.26518,1.97625 0.51887,3.94907 0.75976,5.92188 0.48178,3.94561 0.91359,7.88605 1.29297,11.81836 0.18969,1.96615 0.36651,3.92964 0.5293,5.89257 0.48837,5.88882 0.85336,11.76375 1.08398,17.625 h 2.2793 c -0.0775,-2.00312 -0.17088,-4.00774 -0.2793,-6.01367 -0.10842,-2.00592 -0.23073,-4.01266 -0.36914,-6.02148 -0.13841,-2.00882 -0.29151,-4.01944 -0.45898,-6.03125 -0.33494,-4.02362 -0.72825,-8.05371 -1.17383,-12.08985 -0.22279,-2.01807 -0.45798,-4.03725 -0.70703,-6.05859 -0.24906,-2.02134 -0.51077,-4.04561 -0.78516,-6.07031 -0.48682,-3.59223 -1.01954,-7.18974 -1.58203,-10.79297 z m -75.7519,12.94141 0.006,2.63281 c 10.75945,6.16854 21.97253,11.63602 33.52149,16.29297 2.76337,1.1143 5.54632,2.18383 8.3457,3.20508 v -2.43164 c -4.1325,-1.52063 -8.22829,-3.14473 -12.2793,-4.86914 C 359.02657,899.99884 349.13737,895.02465 339.6078,889.5 Z m 336.4707,5.82812 -0.26171,34.63282 -1.31641,0.006 c -0.0204,0.75769 -0.0352,1.51584 -0.0606,2.27343 h 2.28125 c 0.065,-1.97 0.11469,-3.94507 0.14844,-5.92382 0.0337,-1.97875 0.0508,-3.96227 0.0508,-5.94727 0,-4.48453 -0.0823,-8.96857 -0.24414,-13.45508 -0.10791,-2.991 -0.25084,-5.98296 -0.42773,-8.97461 -0.0515,-0.8703 -0.11275,-1.74097 -0.16993,-2.61133 z m -223.00976,11.7793 c 0.12586,1.86688 0.24493,3.73323 0.34375,5.59766 0.1153,2.17536 0.2117,4.34936 0.28906,6.52148 0.0774,2.17212 0.13563,4.34274 0.17383,6.51172 0.0382,2.16898 0.0569,4.33602 0.0547,6.50195 h 2.28125 v -0.33984 c 6.2e-4,-2.1725 -0.0208,-4.34627 -0.0605,-6.52148 -0.0795,-4.35043 -0.23711,-8.70639 -0.4707,-13.06836 -0.0635,-1.18578 -0.14627,-2.37387 -0.22071,-3.56055 z m -113.4043,8.39063 0.006,2.55664 c 4.4425,2.294 8.95229,4.46854 13.52149,6.51562 1.14861,0.5146 2.30116,1.02099 3.45703,1.51953 1.15587,0.49855 2.31569,0.99035 3.47851,1.47266 1.16283,0.48231 2.32857,0.95599 3.49805,1.42188 1.16948,0.46587 2.34175,0.92376 3.51758,1.37304 1.17582,0.44929 2.35523,0.88977 3.53711,1.32227 h 6.75976 c -1.24343,-0.42188 -2.4833,-0.85233 -3.7207,-1.29297 -2.4748,-0.88127 -4.93818,-1.80081 -7.38672,-2.75586 -1.22427,-0.47752 -2.44494,-0.96335 -3.66211,-1.45898 -1.21717,-0.49565 -2.4309,-1.00011 -3.64062,-1.51368 -1.20973,-0.51356 -2.41527,-1.03709 -3.61719,-1.56836 -1.20192,-0.53126 -2.39999,-1.07038 -3.59375,-1.61914 -2.38753,-1.09751 -4.75855,-2.23028 -7.11133,-3.39648 -1.17639,-0.5831 -2.3465,-1.17543 -3.51367,-1.77539 -0.51207,-0.26322 -1.01905,-0.53437 -1.5293,-0.80078 z m 147.20899,6.73828 c -0.0316,3.33722 -0.0967,6.67252 -0.23243,10.0039 h 2.2793 c 0.12891,-3.1296 0.19583,-6.26125 0.23242,-9.39453 l -1.48828,-0.29882 z m 32.44531,6.66406 c -0.074,1.11335 -0.1322,2.22697 -0.21875,3.33984 h 2.33008 c 0.0731,-0.95835 0.12721,-1.91809 0.1914,-2.87695 z m -507.318361,0.24414 c -0.0664,0.97837 -0.11334,1.95742 -0.18946,2.93555 v 0.0195 h 2.33008 v -0.0195 c 0.0745,-0.97568 0.13032,-1.95302 0.19532,-2.92969 z m 32.89062,0.082 c -0.10296,0.9513 -0.20749,1.90252 -0.32031,2.85352 v 0.0195 h 2.2793 v -0.0195 c 0.11395,-0.9491 0.2148,-1.8984 0.31836,-2.84766 z m 24.33203,0.0606 c -0.0817,0.93087 -0.15135,1.8626 -0.24218,2.79297 v 0.0195 h 2.29882 v -0.0195 c 0.0897,-0.92777 0.15335,-1.85832 0.23438,-2.78711 z m 24.5293,0.0606 c -0.0652,0.91091 -0.12722,1.822 -0.20117,2.73242 v 0.0195 h 2.2793 v -0.0195 c 0.0762,-0.90792 0.13018,-1.81774 0.19726,-2.72656 z m 24.494141,0.0605 c -0.0507,0.89699 -0.0882,1.79464 -0.14648,2.69141 h 2.28125 c 0.0583,-0.89633 0.10569,-1.79208 0.15625,-2.6875 z m 24.49805,0.0586 c -0.0362,0.87755 -0.0603,1.75549 -0.10352,2.63281 h 2.2793 c 0.0426,-0.87574 0.0616,-1.75119 0.0977,-2.62695 z m 24.47461,0.0605 c -0.0225,0.85732 -0.0396,1.71474 -0.0684,2.57227 h 2.2793 c 0.0282,-0.85347 0.0421,-1.71114 0.0644,-2.56641 z m 24.45117,0.0606 c -0.01,0.83726 -0.0139,1.67457 -0.0293,2.51172 h 2.29883 c 0.0148,-0.83658 0.0143,-1.67109 0.0254,-2.50586 z m 75.31641,0.18555 c 0.83866,0.63448 1.67501,1.27007 2.5039,1.90625 h 3.75977 c -0.82382,-0.63091 -1.67328,-1.2633 -2.50391,-1.89649 z m 44.68359,0.11133 c 0.98923,0.59992 1.97291,1.20773 2.9707,1.79492 h 4.50977 c -1.02307,-0.58252 -2.03039,-1.18933 -3.04492,-1.78516 z m 340.61914,0.17382 -2.26758,0.008 c -0.0309,0.72461 -0.0561,1.44936 -0.0918,2.17382 h 2.27929 c 0.0354,-0.7271 0.0492,-1.45453 0.0801,-2.18164 z m -24.50195,0.0996 -2.27539,0.01 c -0.0403,0.69068 -0.0762,1.38177 -0.1211,2.07226 h 2.2793 c 0.0452,-0.69447 0.0766,-1.38808 0.11719,-2.08203 z m -24.52539,0.10157 -2.27539,0.01 c -0.049,0.65691 -0.0931,1.314 -0.14649,1.9707 h 2.2793 c 0.0545,-0.65966 0.0926,-1.32044 0.14258,-1.98046 z m -24.54297,0.10156 -2.28906,0.01 c -0.0567,0.62305 -0.10912,1.24632 -0.16992,1.86914 h 2.30078 c 0.0605,-0.62559 0.1017,-1.25291 0.1582,-1.8789 z m -24.38086,0.10156 -2.28125,0.008 c -0.0661,0.58969 -0.12733,1.17994 -0.19726,1.76953 h 2.28124 c 0.0706,-0.59236 0.13069,-1.18497 0.19727,-1.77734 z" /><path
   class="st0"
   d="M 664.5,131.8 663.3,130 C 652.7,114.1 640.3,99.1 626.5,85.2 571.5,30.2 498.3,0 420.5,0 H 0.7 v 16.7 c 0,60.2 19,119 56.5,174.8 24.4,36.4 55.9,70.5 94.1,101.8 C 113.4,325 81.4,359.6 57.2,395.1 19.7,450.3 0.7,507.3 0.7,564.7 V 932 H 344 V 585.1 h 76.6 c 77.6,0 150.8,-31 206,-87.1 23.9,-24.3 43.3,-52.1 57.6,-82.8 18.2,-38.6 27.8,-80.9 27.8,-124.2 0,-0.1 0,-0.2 0,-0.3 0,-0.1 0,-0.2 0,-0.3 -0.1,-56.9 -16.5,-111.3 -47.5,-158.6 z M 61.3,188.7 C 24.4,133.8 5.7,75.9 5.7,16.7 V 4.9 h 414.8 c 98.2,0 185,49.6 236.6,125.1 H 576.8 C 518,130 451.8,141.8 385.6,164.1 319.5,186.4 254.9,218.5 199,257 183.7,267.6 169,278.6 155.1,290 117,258.8 85.6,224.9 61.3,188.7 Z M 338.9,927 H 5.6 V 585.1 h 333.3 z m 284,-432.5 c -54.3,55.2 -126.2,85.6 -202.5,85.6 H 343.8 5.7 v -15.5 c 0,-56.3 18.7,-112.5 55.6,-166.8 24,-35.3 56,-69.8 93.9,-101.3 13.8,11.2 28.4,22 43.9,32.4 55.5,37.5 120,68.6 186.6,90 65.8,21.2 131.9,32.4 191.2,32.4 h 81.2 c -10.3,15.4 -22,29.8 -35.2,43.2 z m 61.4,-92.3 c -1.5,3.6 -3.1,7.2 -4.7,10.7 -5.4,11.5 -11.6,22.6 -18.6,33.4 H 576.8 C 518,446.3 452.4,435.2 387.1,414.2 321,392.9 256.9,362 201.7,324.8 c -15,-10.1 -29.3,-20.7 -42.7,-31.5 13.5,-11.1 27.8,-21.8 42.8,-32.1 113,-77.8 256.7,-126.1 375,-126.1 h 83.6 c 29.3,44.8 46.3,98.3 46.4,155.6 0,38.5 -7.6,76 -22.5,111.5 z M 513.4,614.1 H 370.9 v 149.1 c 0,44.5 16.9,86.6 47.5,118.3 31.4,32.5 73.9,50.4 119.8,50.4 h 142.5 v -149 c 0,-46.6 -17.6,-89.5 -49.6,-121 C 599.8,631.1 558,614.1 513.4,614.1 Z M 675.7,927 H 538.2 C 493.7,927 452.5,909.6 422,878.1 392.2,847.3 375.8,806.5 375.8,763.2 V 619.1 h 137.5 c 43.3,0 83.8,16.5 114.2,46.3 31,30.5 48.1,72.2 48.1,117.5 z M -213.4,774.5 h 126.7 v 5.1 h -126.7 z m 0,-61.5 v -5.3 l 119.1,-94.8 h -119.1 v -5.1 h 126.7 v 5.3 l -118.9,94.8 H -86.7 V 713 Z M -150,283.3 c -33.5,0 -60.8,27.3 -60.8,60.8 0,33.6 27.3,61 60.8,61 33.5,0 60.8,-27.4 60.8,-61 0,-33.5 -27.3,-60.8 -60.8,-60.8 m 0,127 c -36.3,0 -65.9,-29.7 -65.9,-66.2 0,-36.4 29.6,-66.1 65.9,-66.1 36.3,0 65.9,29.6 65.9,66.1 0,36.5 -29.6,66.2 -65.9,66.2 m 35.3,-182.5 c 15.7,-1.2 26.1,-18.5 26.1,-43.7 0,-24.7 -10.3,-40.1 -26.9,-40.1 -19.5,0 -26,21.6 -32.4,42.6 -6.5,21.2 -13.9,45.2 -36.1,45.2 -19.4,0 -32,-17.4 -32,-44.3 0,-26.7 12.9,-46.2 30.7,-46.8 v 4.9 c -15.8,1 -26.3,17.6 -26.3,41.9 0,23.9 10.3,38.7 26.9,38.7 18.9,0 25.2,-19.9 31.8,-41 l 0.2,-0.7 c 6.6,-21.6 14,-46.2 36.6,-46.2 19.3,0 31.8,18 31.8,45.8 0,28.1 -12.5,47.9 -30.6,48.7 z M -213.4,87.2 V 1.6 h 4.9 v 80.5 h 57.3 V 13.6 h 4.6 v 68.5 h 55 V 1.6 h 4.9 v 85.6 z m 40.1,749.5 c -17.1,0 -35.5,11.8 -35.5,37.9 v 50.2 h 71 v -50.2 c 0,-18.3 -11.1,-37.9 -35.5,-37.9 m -40.1,93.1 v -55.6 c 0,-29.2 20.7,-42.5 39.9,-42.5 23.3,0 40.2,17.8 40.2,42.5 v 13.5 l 4.5,-1.8 c 21.9,-9 36.9,-30.5 37.9,-54 h 5.1 c -1,27.6 -18.9,51.7 -45.2,60.4 l -2.2,0.7 v 31.8 h 46.6 v 5.1 h -126.8 z m 40.1,-474.2 c -17.1,0 -35.5,11.8 -35.5,37.9 v 50.2 h 71 v -50.2 c 0,-18.3 -11.1,-37.9 -35.5,-37.9 m -40.1,93.2 v -55.6 c 0,-29.2 20.7,-42.5 39.9,-42.5 23.3,0 40.2,17.8 40.2,42.5 v 13.5 l 4.5,-1.8 c 21.9,-9 36.9,-30.5 37.9,-54 h 5.1 c -1,27.6 -18.9,51.7 -45.2,60.4 l -2.2,0.7 v 31.8 h 46.6 v 5.1 z"
   id="path15"
   style="display:inline;fill:url(#SVGID_1_)" />


</svg>
