<svg width="96" height="96" viewBox="0 0 96 96" fill="none" xmlns="http://www.w3.org/2000/svg">
<g clip-path="url(#clip0_80_296)">
<path d="M47.61 95.22C73.9043 95.22 95.22 73.9043 95.22 47.61C95.22 21.3157 73.9043 0 47.61 0C21.3157 0 0 21.3157 0 47.61C0 73.9043 21.3157 95.22 47.61 95.22Z" fill="#B37350"/>
<path d="M24.2802 63.3995H30.9002V64.1195H24.2802V63.3995ZM24.2802 60.2794L29.6102 56.0395H24.2802V55.3195H30.9002V55.9295L25.5702 60.1694H30.9002V60.8895H24.2802V60.2794ZM27.5902 39.3295C25.7002 39.3295 24.1602 40.8695 24.1602 42.7695C24.1602 44.6695 25.7002 46.2195 27.5902 46.2195C29.4802 46.2195 31.0202 44.6695 31.0202 42.7695C31.0202 40.8695 29.4802 39.3295 27.5902 39.3295ZM30.3002 42.7695C30.3002 44.2695 29.0802 45.4895 27.5902 45.4895C26.1002 45.4895 24.8802 44.2695 24.8802 42.7695C24.8802 41.2695 26.1002 40.0595 27.5902 40.0595C29.0802 40.0595 30.3002 41.2795 30.3002 42.7695ZM31.0202 35.0095C31.0202 36.5395 30.2902 37.6095 29.2502 37.6095H29.0702V36.8995H29.2202C29.8902 36.8995 30.3402 36.1395 30.3402 35.0095C30.3402 33.9595 29.9302 33.2995 29.2702 33.2995C28.5002 33.2995 28.2202 34.2195 27.9302 35.1995C27.6102 36.2495 27.2102 37.5595 25.9502 37.5595C24.8602 37.5595 24.1602 36.6195 24.1602 35.1795C24.1602 33.7395 24.9002 32.6695 25.9302 32.6695H26.1202V33.3795H25.9602C25.2902 33.3795 24.8402 34.0995 24.8402 35.1795C24.8402 36.1895 25.2502 36.8195 25.9102 36.8195C26.6502 36.8195 26.9202 35.9795 27.2302 34.9995V34.9695C27.5702 33.8995 27.9702 32.5595 29.2402 32.5595C30.3202 32.5595 31.0202 33.5195 31.0202 35.0195V35.0095ZM30.9002 30.5495H24.2802V25.9495H24.9902V29.8295H27.3002V26.1495H27.9902V29.8295H30.1802V25.9495H30.8902V30.5495H30.9002ZM30.2202 66.2995C30.2202 67.3495 29.5902 68.3294 28.6402 68.7694V68.4695C28.6402 67.1395 27.7202 66.1795 26.4502 66.1795C25.4002 66.1795 24.2802 66.8995 24.2802 68.4695V71.3995H30.9002V70.6795H28.6402V69.5495C30.0202 69.0695 30.9402 67.7695 30.9402 66.2995V66.1795H30.2202V66.2995ZM24.9702 70.6895V68.4894C24.9702 67.3895 25.7402 66.8895 26.4602 66.8895C27.4802 66.8895 27.9502 67.7194 27.9502 68.4894V70.6895H24.9802H24.9702ZM30.2202 47.8295C30.2202 48.8795 29.5902 49.8595 28.6402 50.2995V49.9995C28.6402 48.6695 27.7202 47.7095 26.4502 47.7095C25.4002 47.7095 24.2802 48.4295 24.2802 49.9995V52.9295H30.9002V52.2095H28.6402V51.0795C30.0202 50.5995 30.9402 49.2995 30.9402 47.8295V47.7095H30.2202V47.8295ZM24.9702 52.2195V50.0195C24.9702 48.9195 25.7402 48.4195 26.4602 48.4195C27.4802 48.4195 27.9502 49.2495 27.9502 50.0195V52.2195H24.9802H24.9702ZM56.5302 25.9595H36.0102V26.3095C36.0102 31.6395 38.0202 36.5195 41.3202 40.2095C38.0202 43.9095 36.0102 48.7795 36.0102 54.1095V71.3995H52.7802V54.4595H56.5302C64.3902 54.4595 70.7902 48.0595 70.7902 40.1995C70.7902 32.3395 64.3902 25.9395 56.5302 25.9395V25.9595ZM36.7302 26.6695H56.5302C61.4402 26.6695 65.7502 29.2895 68.1202 33.2095H56.9202C50.9802 33.2095 45.6102 35.6995 41.8002 39.6895C38.7102 36.2095 36.8102 31.6495 36.7202 26.6595L36.7302 26.6695ZM52.0802 70.7094H36.7302V54.4795H52.0802V70.7094ZM56.5402 53.7695H36.7402C36.8302 48.7795 38.7302 44.2295 41.8202 40.7395C45.6302 44.7295 51.0002 47.2195 56.9402 47.2195H68.1402C65.7602 51.1395 61.4502 53.7595 56.5402 53.7595V53.7695ZM56.9302 46.5195C51.1702 46.5195 45.9702 44.0995 42.2902 40.2195C45.9702 36.3395 51.1802 33.9195 56.9302 33.9195H68.5302C69.5202 35.7995 70.0802 37.9495 70.0802 40.2195C70.0802 42.4895 69.5202 44.6295 68.5302 46.5195H56.9302ZM69.7302 71.4194H62.1202C57.9302 71.4194 54.5102 68.0095 54.5102 63.8095V56.1995H62.1202C66.3102 56.1995 69.7302 59.6095 69.7302 63.8095V71.4194ZM55.2202 56.9095V63.8095C55.2202 67.6095 58.3202 70.7094 62.1202 70.7094H69.0202V63.8095C69.0202 60.0095 65.9202 56.9095 62.1202 56.9095H55.2202Z" fill="#FBFCFD"/>
</g>
<defs>
<clipPath id="clip0_80_296">
<rect width="95.21" height="95.21" fill="white"/>
</clipPath>
</defs>
</svg>
