<svg width="1353" height="1359" viewBox="0 0 1353 1359" fill="none" xmlns="http://www.w3.org/2000/svg">
<path d="M1283.45 192.371L1281.7 189.748C1266.25 166.575 1248.18 144.714 1228.07 124.456C1147.91 44.2989 1041.23 0.285156 927.84 0.285156H316.02V24.6239C316.02 112.36 343.711 198.055 398.364 279.379C433.925 332.428 479.833 382.126 535.506 427.743C480.27 473.943 433.633 524.369 398.364 576.107C343.711 656.556 316.02 739.628 316.02 823.283V1358.59H816.348V853.014H927.986C1041.08 853.014 1147.76 807.835 1228.21 726.074C1263.04 690.659 1291.32 650.143 1312.16 605.401C1338.68 549.145 1352.67 487.496 1352.67 424.391C1352.67 424.245 1352.67 424.099 1352.67 423.954C1352.67 423.808 1352.67 423.662 1352.67 423.516C1352.53 340.59 1328.63 261.307 1283.45 192.371ZM404.339 275.298C350.561 195.286 323.307 110.902 323.307 24.6239V7.42644H927.84C1070.96 7.42644 1197.46 79.7139 1272.66 189.748H1155.63C1069.94 189.748 973.457 206.946 876.977 239.446C780.642 271.946 686.493 318.729 605.024 374.839C582.726 390.287 561.302 406.319 541.044 422.933C485.517 377.462 439.754 328.056 404.339 275.298ZM808.916 1351.3H323.162V853.014H808.916V1351.3ZM1222.82 720.973C1143.68 801.422 1038.89 845.727 927.694 845.727H816.057H323.307V823.137C323.307 741.085 350.561 659.179 404.339 580.042C439.317 528.595 485.954 478.315 541.19 432.406C561.302 448.729 582.58 464.469 605.17 479.626C686.056 534.279 780.059 579.605 877.122 610.793C973.02 641.69 1069.35 658.013 1155.78 658.013H1274.12C1259.11 680.457 1242.06 701.444 1222.82 720.973ZM1312.3 586.454C1310.12 591.701 1307.79 596.948 1305.45 602.049C1297.58 618.809 1288.55 634.986 1278.35 650.726H1155.63C1069.94 650.726 974.331 634.549 879.163 603.943C782.828 572.901 689.408 527.867 608.959 473.651C587.098 458.931 566.257 443.483 546.728 427.743C566.403 411.566 587.244 395.971 609.105 380.96C773.792 267.574 983.221 197.181 1155.63 197.181H1277.47C1320.17 262.473 1344.95 340.444 1345.1 423.954C1345.1 480.064 1334.02 534.716 1312.3 586.454ZM1063.23 895.279H855.553V1112.58C855.553 1177.43 880.183 1238.79 924.78 1284.99C970.542 1332.36 1032.48 1358.44 1099.38 1358.44H1307.06V1141.29C1307.06 1073.37 1281.41 1010.85 1234.77 964.943C1189.15 920.055 1128.23 895.279 1063.23 895.279ZM1299.77 1351.3H1099.38C1034.52 1351.3 974.477 1325.94 930.026 1280.03C886.595 1235.15 862.694 1175.68 862.694 1112.58V902.566H1063.09C1126.19 902.566 1185.22 926.613 1229.52 970.044C1274.7 1014.5 1299.62 1075.27 1299.62 1141.29L1299.77 1351.3ZM3.98945 1129.05H188.643V1136.48H3.98945V1129.05ZM3.98945 1039.42V1031.69L177.567 893.53H3.98945V886.097H188.643V893.822L15.3572 1031.98H188.643V1039.42H3.98945ZM96.3891 413.169C47.5659 413.169 7.77871 452.956 7.77871 501.779C7.77871 550.748 47.5659 590.681 96.3891 590.681C145.212 590.681 184.999 550.748 184.999 501.779C184.999 452.956 145.212 413.169 96.3891 413.169ZM96.3891 598.259C43.4852 598.259 0.345934 554.974 0.345934 501.779C0.345934 448.729 43.4852 405.444 96.3891 405.444C149.293 405.444 192.432 448.584 192.432 501.779C192.432 554.974 149.293 598.259 96.3891 598.259ZM147.836 332.283C170.717 330.534 185.874 305.321 185.874 268.594C185.874 232.596 170.863 210.152 146.67 210.152C118.25 210.152 108.777 241.632 99.4496 272.237C89.9765 303.134 79.1917 338.112 46.8372 338.112C18.5635 338.112 0.200195 312.753 0.200195 273.549C0.200195 234.636 19.0007 206.217 44.9426 205.342V212.484C21.9156 213.941 6.61278 238.134 6.61278 273.549C6.61278 308.381 21.6241 329.951 45.817 329.951C73.362 329.951 82.5437 300.948 92.1626 270.197L92.4541 269.177C102.073 237.697 112.858 201.845 145.795 201.845C173.923 201.845 192.141 228.078 192.141 268.594C192.141 309.547 173.923 338.404 147.544 339.57L147.836 332.283ZM3.98945 127.371V2.61701H11.1308V119.938H94.6402V20.1059H101.344V119.938H181.502V2.61701H188.643V127.371H3.98945ZM62.4315 1219.7C37.5098 1219.7 10.6935 1236.9 10.6935 1274.93V1348.1H114.169V1274.93C114.169 1248.26 97.9922 1219.7 62.4315 1219.7ZM3.98945 1355.38V1274.35C3.98945 1231.79 34.1578 1212.41 62.14 1212.41C96.0976 1212.41 120.728 1238.35 120.728 1274.35V1294.03L127.286 1291.4C159.203 1278.29 181.064 1246.95 182.522 1212.7H189.955C188.497 1252.93 162.41 1288.05 124.08 1300.73L120.874 1301.75V1348.1H188.789V1355.53H3.98945V1355.38ZM62.4315 664.28C37.5098 664.28 10.6935 681.477 10.6935 719.516V792.678H114.169V719.516C114.169 692.845 97.9922 664.28 62.4315 664.28ZM3.98945 800.11V719.079C3.98945 676.522 34.1578 657.139 62.14 657.139C96.0976 657.139 120.728 683.081 120.728 719.079V738.754L127.286 736.13C159.203 723.014 181.064 691.679 182.522 657.43H189.955C188.497 697.655 162.41 732.778 124.08 745.458L120.874 746.478V792.823H188.789V800.256L3.98945 800.11Z" fill="url(#paint0_linear_2_255)"/>
<defs>
<linearGradient id="paint0_linear_2_255" x1="-57.1971" y1="66.7078" x2="1288.3" y2="1412.21" gradientUnits="userSpaceOnUse">
<stop stop-color="#5C3721"/>
<stop offset="0.2657" stop-color="#C5744A"/>
<stop offset="0.5284" stop-color="#5C3721"/>
<stop offset="0.7743" stop-color="#C57B57"/>
<stop offset="0.9996" stop-color="#5B3720"/>
</linearGradient>
</defs>
</svg>
